<?xml version="1.0" encoding="UTF-8"?>
<svg width="552px" height="320px" viewBox="0 0 552 320" version="1.1" xmlns="http://www.w3.org/2000/svg" xmlns:xlink="http://www.w3.org/1999/xlink">
    <!-- Generator: Sketch 43.2 (39069) - http://www.bohemiancoding.com/sketch -->
    <title>Artboard</title>
    <desc>Created with Sketch.</desc>
    <defs>
        <polygon id="path-1" points="258.083849 18.8686208 80.804078 66.3216418 85.2935514 83.0593187 262.573322 35.6062977 266.421442 49.9528779 328.89764 8.45624127 254.021944 3.72500835 258.083849 18.8686208"></polygon>
        <polygon id="path-2" points="66.8800581 47.93894 244.159829 0.485918942 248.649302 17.2235958 71.3695314 64.6766169 75.2176515 79.0231971 0.341955387 74.2919641 62.8181536 32.7953275 66.8800581 47.93894"></polygon>
    </defs>
    <g id="Page-1" stroke="none" stroke-width="1" fill="none" fill-rule="evenodd">
        <g id="Artboard">
            <g id="Syllogism" transform="translate(112.000000, 48.000000)">
                <g id="Group" transform="translate(164.500000, 42.601140) rotate(-180.000000) translate(-164.500000, -42.601140) translate(0.000000, 0.601140)">
                    <g id="Combined-Shape">
                        <use fill="#000000" fill-rule="evenodd" xlink:href="#path-1"></use>
                        <path stroke="#FFFFFF" stroke-width="4" d="M256.675128,5.89664604 L322.841777,10.0775732 L267.632398,46.7475947 L264.50504,35.0881614 L263.987171,33.1574389 L262.056182,33.6743127 L86.7074003,80.6104599 L83.2541995,67.7362197 L258.600989,20.8006057 L260.53397,20.2831987 L260.015567,18.3504845 L256.675128,5.89664604 Z"></path>
                    </g>
                    <g id="Combined-Shape-Copy-2">
                        <use fill="#FFFFFF" fill-rule="evenodd" xlink:href="#path-2"></use>
                        <path stroke="#000000" stroke-width="4" d="M242.74598,2.93477772 L246.19918,15.8090179 L70.8523911,62.7446319 L68.9194099,63.2620389 L69.4378133,65.1947531 L72.5644671,76.8515594 L6.39781811,72.6706322 L61.6071971,36.0006107 L64.94834,48.4570762 L65.4662092,50.3877987 L67.3971984,49.8709249 L242.74598,2.93477772 Z"></path>
                    </g>
                </g>
                <g id="Group-2" transform="translate(91.353398, 30.994302)" stroke-width="4">
                    <g id="John-Black" transform="translate(67.077670, 0.000000)" stroke="#FFFFFF" fill="#000000">
                        <path d="M29.9229414,125.234622 L50.798198,141.842053 C60.06688,155.66915 56.6550598,163.677634 56.6550598,163.677634 C56.6550598,163.677634 42.4474376,172.056608 36.1761071,169.199593 C35.4771332,147.110029 33.266073,132.642586 29.9229414,125.234622 Z" id="John-Right-leg"></path>
                        <path d="M27.1577133,67.6626185 L33.8886194,74.4382079 C34.8818653,75.4380475 36.4396565,75.3953332 37.3725151,74.3377333 L50.2559018,59.7315871 L61.3219053,72.3310365 C61.3219053,72.3310365 45.2904099,91.899549 40.6540836,95.3666262 C36.0177572,98.8337034 28.6985537,90.9059207 23.6279717,84.6642119 C18.5573897,78.4225032 7.66507518,57.872899 7.66507518,57.872899 L27.1577133,67.6626185 Z" id="John-Right-Arm"></path>
                        <path d="M12.7429621,41.830263 C12.7429621,41.830263 19.9125266,35.6991386 23.8475024,45.6838755 C27.7824783,55.6686124 28.1272644,95.2367354 28.1272644,95.2367354 C28.1272644,95.2367354 35.0798199,101.633021 37.2933188,104.651791 C39.5068176,107.67056 67.3476873,116.071351 72.3005964,130.202401 C77.2535056,144.33345 82.3449097,157.709317 82.3449097,157.709317 C82.3449097,157.709317 74.7863062,162.84876 58.1310774,165.992104 C51.9456971,142.931738 48.7271015,131.704902 23.2452661,123.46889 C-2.23656935,115.232877 6.65763988,85.28343 6.65763988,85.28343 L12.7429621,41.830263 Z" id="John-Body"></path>
                        <path d="M19.8030006,68.8450233 L19.5345726,81.4459587 C19.5045294,82.8562888 20.6216882,83.9474993 22.0382874,83.882859 L45.1483821,82.8283313 C46.2076089,82.7799981 46.9949818,83.6004203 46.9075985,84.6539282 L45.4887154,101.760211 C45.401077,102.816793 44.4777921,103.741735 43.4237439,103.824275 C43.4237439,103.824275 13.7171739,106.271316 6.55279007,105.114408 C-0.611593789,103.9575 0.170736366,90.4655836 1.38904211,80.4662368 C2.60734786,70.46689 11.668599,42.7702626 11.668599,42.7702626 L19.8030006,68.8450233 Z" id="John-Left-Arm"></path>
                        <path d="M28.7070618,44.0360042 C16.779174,47.2287785 4.51878558,40.1575343 1.3227177,28.2419382 C-1.87335019,16.326342 5.20518839,4.07858778 17.1330761,0.885813415 C29.0609638,-2.30696095 41.3213523,4.76428326 44.5174202,16.6798794 C47.7134881,28.5954756 40.6349495,40.8432298 28.7070618,44.0360042 Z" id="John-Head"></path>
                    </g>
                    <g id="John-White" transform="translate(53.779264, 102.738478) rotate(-15.000000) translate(-53.779264, -102.738478) translate(21.279264, 17.238478)" stroke="#000000" fill="#FFFFFF">
                        <path d="M43.6774142,123.727941 C42.367497,131.747859 43.9800895,146.294012 49.0280299,167.811613 C43.7106024,172.192745 27.816218,167.772691 27.816218,167.772691 C27.816218,167.772691 22.4457665,160.919224 27.816218,145.166834" id="John-Right-leg"></path>
                        <path d="M31.4323176,67.4027003 L47.7243807,52.9066903 C47.7243807,52.9066903 42.5273281,75.5723171 39.2466615,82.9123555 C35.9659949,90.252394 30.9501651,99.8024413 25.5735464,97.6522349 C20.1969278,95.5020285 1.2035941,81.8584983 1.2035941,81.8584983 C0.344674607,81.2476061 0.0214617666,79.9765705 0.489842507,79.0283225 L6.21828301,67.4309577 C6.68796712,66.4800709 7.78113609,66.1886838 8.66285541,66.7742326 L23.2950058,76.4914269 C24.4700873,77.2717972 25.9858648,76.9102855 26.6862222,75.6877086 L31.4323176,67.4027003 Z" id="John-Right-Arm"></path>
                        <path d="M40.7314671,39.4012822 C40.7314671,39.4012822 30.1493395,34.6550896 28.9353505,45.317002 C27.7213615,55.9789144 37.6398717,94.2879316 37.6398717,94.2879316 C37.6398717,94.2879316 32.5814071,102.263869 31.2254524,105.752082 C29.8694976,109.240294 5.15381018,124.553157 4.03082485,139.483289 C2.90783953,154.413421 1.45542092,168.64991 1.45542092,168.64991 C1.45542092,168.64991 10.0880293,171.659937 26.9901414,170.389925 C26.9901414,146.516078 27.1903495,134.839611 49.6700767,120.295846 C72.149804,105.752082 55.7991741,79.1227553 55.7991741,79.1227553" id="John-Body"></path>
                        <path d="M38.8427692,66.6432374 L41.96186,77.3548356 C42.5799058,79.4773317 41.3319877,81.5815989 39.1733451,82.0551137 L19.0465177,86.4700878 C17.4239879,86.8260022 16.5636314,88.3813265 17.125983,89.9471351 L22.1917606,104.052258 C22.7536084,105.616663 24.5226791,106.643164 26.1614237,106.337201 C26.1614237,106.337201 54.417856,101.220756 61.0383806,98.2509 C67.6589052,95.2810442 63.4076653,82.4511272 59.6401813,73.1074957 C55.8726972,63.7638642 39.9443915,39.3537841 39.9443915,39.3537841" id="John-Left-Arm"></path>
                        <ellipse id="John-Head" cx="23.8144362" cy="22.6455486" rx="22.3592233" ry="22.3361823"></ellipse>
                    </g>
                </g>
            </g>
        </g>
    </g>
</svg>