<?xml version="1.0" encoding="UTF-8"?>
<svg width="552px" height="320px" viewBox="0 0 552 320" version="1.1" xmlns="http://www.w3.org/2000/svg" xmlns:xlink="http://www.w3.org/1999/xlink">
    <!-- Generator: Sketch 43.2 (39069) - http://www.bohemiancoding.com/sketch -->
    <title>Artboard</title>
    <desc>Created with Sketch.</desc>
    <defs>
        <rect id="path-1" x="-5.68434189e-14" y="33.702502" width="4.70646018" height="16.4593614"></rect>
    </defs>
    <g id="Page-1" stroke="none" stroke-width="1" fill="none" fill-rule="evenodd">
        <g id="Artboard">
            <g id="Group-3" transform="translate(194.000000, 69.000000)">
                <g id="John-Robber">
                    <path d="M15.9993663,96.4555407 C15.9993663,96.4555407 10.3173901,109.150013 10.3173901,126.777742 C10.3173901,144.405472 9.01896065,178.70307 9.01896065,178.70307 L27.3576864,178.70307 C27.3576864,178.70307 27.7339956,154.470529 29.7064832,139.472013 C31.6065804,125.023943 32.3588598,114.77042 32.3588598,114.77042 C32.3588598,114.77042 34.9109228,176.645706 35.3139862,178.121997 C43.0201272,180.191281 52.8459636,179.321587 52.8459636,179.321587 C52.8459636,179.321587 57.0601833,107.981205 51.2657996,82.5180841 C68.1834211,88.9123821 82.2466257,93.442806 82.2466257,93.442806 L87.3230537,74.9975694 C87.3230537,74.9975694 39.8149428,64.1327801 39.8149428,33.0334838 C30.8428247,26.6326186 20.7612132,27.5111932 20.7612132,27.5111932 L15.9993663,96.4555407 Z" id="John-Body" stroke="#000000" stroke-width="4" fill="#FFFFFF"></path>
                    <g id="Knife" transform="translate(53.106975, 61.431119) rotate(41.000000) translate(-53.106975, -61.431119) translate(48.606975, 35.931119)">
                        <path d="M4.31425516,0.037322815 C6.66687556,9.70622603 8.62851033,33.702502 8.62851033,33.702502 L-1.13686838e-13,33.702502 C-1.13686838e-13,33.702502 4.31425516,0.254928907 4.31425516,0.037322815 Z" id="Triangle-3" stroke="#000000" stroke-width="4" fill="#FFFFFF"></path>
                        <g id="Rectangle-6">
                            <use fill="#000000" fill-rule="evenodd" xlink:href="#path-1"></use>
                            <rect stroke="#000000" stroke-width="4" x="2" y="35.702502" width="1" height="12.4593614"></rect>
                        </g>
                    </g>
                    <path d="M22.3747105,34.9460697 C22.3747105,34.9460697 2.16920765,55.5523128 0.589959038,80.1827177 C-0.989289571,104.813123 39.6475044,91.6785121 39.6475044,91.6785121 L39.056396,70.8682091 L19.7502404,75.2497925 C19.7502404,75.2497925 18.6314474,65.3890119 23.9095626,59.9478382" id="John-Right-Hand" stroke="#000000" stroke-width="4" fill="#FFFFFF"></path>
                    <ellipse id="John-Head" stroke="#000000" stroke-width="4" fill="#FFFFFF" cx="30.028169" cy="19.0410107" rx="19.056338" ry="19.0410107"></ellipse>
                    <g id="Group" transform="translate(0.000000, 16.246906)" stroke="#000000" stroke-width="4" fill="#000000">
                        <path d="M35.7513329,30.3515679 L9.47415063,6.25610625 C9.47415063,6.25610625 35.5453043,15.7340533 50.6575954,6.25610625 C48.7449765,20.4337965 35.7513329,30.3515679 35.7513329,30.3515679 Z" id="Face-Cover"></path>
                        <polygon id="Triangle" points="1.24432988 0.346490651 12.499726 6.5703132 10.0110662 9.75309042"></polygon>
                        <polygon id="Triangle-Copy" points="0.259494359 10.6170436 12.622711 7.06558519 13.1153377 11.0744813"></polygon>
                    </g>
                </g>
                <g id="John-Black" transform="translate(83.154930, 0.577000)">
                    <path d="M43.1517524,73.384288 C43.1517524,73.384288 47.125826,103.467957 42.9669467,121.40741 C38.8080675,139.346864 37.8522074,180.714845 37.8522074,180.714845 L71.300814,178.548511 C71.300814,178.548511 68.2533589,79.6257682 71.300814,33.1870891 C68.2533589,7.67809887 54.3798249,36.948929 54.3798249,36.948929 L43.1517524,73.384288 Z" id="Path-8" stroke="#FFFFFF" stroke-width="4" fill="#000000"></path>
                    <path d="M62.8698469,33.9101128 C62.8698469,33.9101128 76.0030853,45.1219138 76.0030853,64.2912636 L76.0030853,117.615798 C76.0030853,117.615798 76.9388765,172.674165 80.4375659,178.742799 C68.1859219,181.119369 61.6843098,180.363667 61.6843098,180.363667 C61.6843098,180.363667 55.9326313,140.624461 59.7211479,119.223431" id="Path-7" stroke="#FFFFFF" stroke-width="4" fill="#000000"></path>
                    <path d="M54.072361,42.1210236 C54.072361,42.1210236 37.7184538,58.4934841 12.1267606,74.214361 C23.8355997,84.9825202 22.1408437,88.0907392 22.1408437,88.0907392 L50.7575953,65.997137" id="Path-6-Copy" stroke="#FFFFFF" stroke-width="4" fill="#000000"></path>
                    <g id="Group-2" transform="translate(0.000000, 58.854033)">
                        <ellipse id="Oval-3" stroke="#000000" stroke-width="4" fill="#000000" cx="14.7253521" cy="14.7135083" rx="14.7253521" ry="14.7135083"></ellipse>
                        <path d="M19.9764682,17.2470078 C19.9764682,16.5873985 19.8764467,16.0077415 19.6764045,15.5080377 C19.4763623,15.008334 19.1963024,14.563597 18.8362259,14.1738279 C18.4761493,13.7840587 18.0410569,13.4392629 17.5309484,13.1394405 C17.02084,12.8396181 16.465722,12.54979 15.8655945,12.2699554 L15.0554223,11.9101685 C14.5553213,11.6902984 14.1302308,11.4704293 13.7801512,11.2505592 C13.4300766,11.0306891 13.2550396,10.7208732 13.2550396,10.3211096 C13.2950305,10.041276 13.4400612,9.7864269 13.6901321,9.55656242 C13.9401851,9.32669795 14.2252457,9.21176662 14.5453138,9.21176662 C14.8453776,9.21176662 15.115435,9.306711 15.355486,9.49659794 C15.5955371,9.68648487 15.745569,9.92134699 15.8055817,10.2011807 L18.2060919,9.63151803 C18.0660625,9.07184888 17.816009,8.57214605 17.4559325,8.13240587 C17.095856,7.69266569 16.6557627,7.35286754 16.1356519,7.1130096 L16.1356519,3.42519368 L13.6451225,3.42519368 L13.6451225,6.84316941 C12.8049439,7.04297844 12.1147972,7.48271862 11.5746824,8.16238811 C11.0345676,8.84198623 10.7645102,9.63151803 10.7645102,10.5309853 C10.7645102,11.2305713 10.9295453,11.8052307 11.2596155,12.2549643 C11.5896856,12.704698 12.0047742,13.0894704 12.5048801,13.4092807 C13.0049866,13.729091 13.5501022,14.0089255 14.1402277,14.2487835 C14.7303533,14.4886414 15.2754689,14.7434905 15.7755753,15.0133307 C16.2756818,15.2831709 16.6907699,15.5979844 17.02084,15.9577714 C17.3509102,16.3175583 17.5159453,16.7672919 17.5159453,17.3069723 C17.5159453,17.6867471 17.4359286,18.0515316 17.2758942,18.4013242 C17.1158599,18.7511172 16.9008145,19.0609335 16.6307571,19.3307737 C16.3606997,19.6006139 16.050634,19.8154868 15.7005594,19.975392 C15.3504848,20.1352971 14.9754051,20.2152499 14.5753202,20.2152499 C13.9951971,20.2152499 13.4450798,20.0503476 12.9249694,19.7205429 C12.4048586,19.3907382 12.0247781,18.9260134 11.7847271,18.3263686 L9.47423598,19.2558181 C9.83431252,20.1552854 10.3894305,20.8998443 11.13959,21.4894952 C11.8897494,22.0791425 12.7249268,22.4539206 13.6451225,22.6138294 L13.6451225,26.0018228 L16.1356519,26.0018228 L16.1356519,22.4339359 C16.6957706,22.2540424 17.2158815,21.9941966 17.6959835,21.6543976 C18.1760856,21.314599 18.5811717,20.9198326 18.9112418,20.470099 C19.241312,20.0203653 19.501367,19.5206611 19.6914077,18.9709868 C19.8814484,18.4213125 19.9764682,17.8466527 19.9764682,17.2470078 Z" id="$" fill="#FFFFFF"></path>
                    </g>
                    <path d="M55.5815061,42.1210236 C55.5815061,42.1210236 39.9096258,66.5816886 12.1267606,92.6187043 C30.7497822,102.91383 29.5903014,107.19399 29.5903014,107.19399 L59.17134,72.4973889" id="Path-6" stroke="#FFFFFF" stroke-width="4" fill="#000000"></path>
                    <ellipse id="Oval" stroke="#FFF7F7" stroke-width="4" fill="#000000" cx="58.0352113" cy="21.0605118" rx="21.0774648" ry="21.0605118"></ellipse>
                </g>
            </g>
        </g>
    </g>
</svg>