<?xml version="1.0" encoding="UTF-8"?>
<svg width="552px" height="320px" viewBox="0 0 552 320" version="1.1" xmlns="http://www.w3.org/2000/svg" xmlns:xlink="http://www.w3.org/1999/xlink">
    <!-- Generator: Sketch 43.2 (39069) - http://www.bohemiancoding.com/sketch -->
    <title>Artboard</title>
    <desc>Created with Sketch.</desc>
    <defs>
        <path d="M98.7596899,112.235294 C98.7596899,112.235294 197.942631,118.038831 220.181385,131.653414 C196.051716,144.201756 168.578333,176.168219 168.578333,176.168219 L56.6733366,150.277652 L98.7596899,112.235294 Z" id="path-1"></path>
    </defs>
    <g id="Page-1" stroke="none" stroke-width="1" fill="none" fill-rule="evenodd">
        <g id="Artboard">
            <g id="Group" transform="translate(140.000000, 41.000000)">
                <path d="M116.442703,31.4639208 C116.442703,31.4639208 107.751295,58.6565672 124.117753,62.9056415 C140.484211,67.1547158 169.979261,27.8775286 180.702949,0.247277207 C189.102393,11.6892912 168.622094,51.9173544 183.984095,59.0674222 C199.346096,66.21749 246.004336,13.9729671 246.004336,13.9729671 C246.004336,13.9729671 228.412566,31.4639208 246.004336,73.844457 C263.596106,116.224993 284.838477,124.446173 264.180729,165.708966 C243.522982,206.971759 216.069343,223.183949 157.339799,235.649511 C98.6102544,248.115073 27.7009994,229.027821 10.9231819,203.003524 C-5.85463555,176.979227 -7.58933522,134.497136 38.8520426,98.7013887 C85.2934204,62.9056415 116.442703,31.4639208 116.442703,31.4639208 Z" id="Path-11" fill="#000000"></path>
                <path d="M120.604745,82.0810254 C120.604745,82.0810254 113.859682,100.085905 126.561053,102.899315 C139.262425,105.712725 162.152386,79.7063923 170.474623,61.4117647 C176.993105,68.9877864 161.099141,95.6237161 173.020993,100.357941 C184.942845,105.092166 221.15249,70.499861 221.15249,70.499861 C221.15249,70.499861 207.500202,82.0810254 221.15249,110.142157 C234.804778,138.203289 251.290156,143.646722 235.258482,170.96777 C219.226807,198.288818 197.921106,209.023284 152.343391,217.27702 C106.765676,225.530756 51.7357606,212.892646 38.715149,195.661358 C25.6945374,178.43007 24.3483044,150.301697 60.3896516,126.600506 C96.4309987,102.899315 120.604745,82.0810254 120.604745,82.0810254 Z" id="Path-11" fill="#FFFFFF"></path>
                <path d="M62.392159,149.123526 C62.392159,149.123526 50.8592593,155.905307 57.9293074,168.451429 C65.9106792,171.962809 157.202936,189.562778 157.202936,189.562778 C157.202936,189.562778 159.19969,181.731678 166.82808,174.386799" id="Path-9" stroke="#000000" stroke-width="7" fill="#FFFFFF"></path>
                <g id="Rectangle">
                    <use fill="#FFFFFF" fill-rule="evenodd" xlink:href="#path-1"></use>
                    <path stroke="#000000" stroke-width="7" d="M100.01423,115.819239 C101.145818,115.890848 102.454741,115.976977 103.926437,116.077789 C108.211743,116.371336 112.988056,116.727873 118.132243,117.148757 C132.826112,118.35097 147.518245,119.826947 161.219337,121.586509 C184.51466,124.578211 202.436569,128.085982 212.63276,131.95229 C211.868596,132.429162 211.097968,132.924039 210.321011,133.436583 C204.063589,137.564486 197.487002,142.772842 190.724275,148.815557 C184.587307,154.299137 178.631683,160.165188 173.082717,166.030817 C171.140421,168.083954 169.386626,169.991544 167.849996,171.70549 C167.669452,171.906867 167.496204,172.100792 167.330386,172.287037 L63.9935011,148.378806 L100.01423,115.819239 Z"></path>
                </g>
                <path d="M224.160937,150.109732 C210.617417,154.565535 200.598436,170.002908 187.305536,181.200474 C174.012636,192.398041 171.380145,189.855326 160.937947,189.855326 C159.562794,184.843435 176.138978,156.946724 218.67509,133.652284 C218.67509,132.106877 208.373727,142.495216 209.797104,147.899468 C210.773323,151.605959 212.991335,140.934241 224.160937,150.109732 Z" id="Path-10" stroke="#000000" stroke-width="7" fill="#FFFFFF"></path>
                <path d="M98.4210644,146.759421 L96.0270267,146.225946 L94.0916811,148.910474 L81.749129,146.135711 L80.4186047,147.567386 L95.5507778,150.911304 L98.4210644,146.759421 Z M99.090318,140.606866 L96.96112,140.102813 L94.7548347,143.189079 L88.7249989,141.773065 L91.2001432,138.712469 L89.1691748,138.212617 L85.3870943,142.661556 L93.7124518,144.602636 L93.3252278,145.12094 L95.6164729,145.640124 L95.9866948,145.120257 L99.0544838,145.810419 L101.93342,141.326386 L99.8096997,140.830594 L97.7681805,143.882114 L96.9830184,143.702438 L99.090318,140.606866 Z M94.99964,133.747763 L93.1028674,133.258807 L89.4973952,137.789156 L91.5323203,138.29193 L92.7609436,136.714905 L103.202552,139.250444 L104.04253,137.838804 L93.8216404,135.324788 L94.99964,133.747763 Z M98.5324726,128.783057 L96.7813253,128.309198 L93.4250068,132.839546 L95.309229,133.327223 L96.4531473,131.750199 L106.116858,134.208872 L106.890247,132.797232 L97.4391781,130.360081 L98.5324726,128.783057 Z M108.23968,125.105374 L106.573621,124.647926 L104.845317,127.734191 L100.102711,126.446725 L102.070372,123.38613 L100.484487,122.932493 L97.4575901,127.381432 L104.021856,129.147748 L103.714904,129.666052 L105.525394,130.138633 L105.817164,129.618766 L108.240273,130.24679 L110.466242,125.762756 L108.803136,125.312792 L107.21788,128.364311 L106.599527,128.200947 L108.23968,125.105374 Z M112.815314,120.555109 L111.29431,120.120478 C110.82675,121.137651 108.407967,121.578592 105.475691,121.375426 C105.430695,120.789641 105.042558,120.266736 104.408292,120.080425 C103.437299,119.793505 102.171746,120.300398 101.612938,121.185527 L100.758407,122.513221 L110.690787,125.288255 L111.346353,123.876615 L107.778878,122.886107 C110.363781,122.762017 112.156597,122.073512 112.703632,120.816084 L112.815314,120.555109 Z M103.584997,121.471317 C103.688795,121.501409 103.729938,121.636737 103.746239,121.737418 L103.19972,121.579238 C103.32941,121.465788 103.442402,121.429941 103.584997,121.471317 Z M111.728749,138.32522 C110.424583,138.018835 108.906666,138.529521 108.439201,139.437102 C107.970838,140.332741 108.728678,141.363773 110.11766,141.680542 C111.515181,141.997312 113.028045,141.490334 113.42967,140.588501 C113.829943,139.674643 113.040904,138.631606 111.728749,138.32522 Z M111.049869,139.763215 C111.245987,139.808543 111.373412,139.957655 111.305239,140.101529 C111.242596,140.233414 111.005743,140.311978 110.808155,140.266514 C110.592805,140.216917 110.489842,140.059948 110.553956,139.9282 C110.62373,139.784475 110.836121,139.713768 111.049869,139.763215 Z M121.111233,134.805575 L119.136631,134.334801 L118.149482,137.148427 L112.518478,135.816136 L113.702464,133.12116 L111.796314,132.650105 L109.836245,136.758306 L117.621832,138.58543 L117.404504,139.165061 L119.529135,139.649924 L119.728181,139.068602 L122.609566,139.722307 L123.030794,138.275442 L120.210834,137.627408 L121.111233,134.805575 Z M140.776855,155.041485 L124.17589,151.782602 L123.72024,153.274862 L124.816325,153.493061 C123.922313,154.055302 123.242273,154.791586 122.981768,155.598875 L122.733189,156.357237 L140.371437,159.699483 L140.516423,158.167575 L126.164109,155.429428 C126.574692,154.888715 127.303732,154.45014 128.151096,154.152022 L140.656211,156.560939 L140.776855,155.041485 Z M137.796839,148.616911 L135.320672,148.113977 L134.876245,151.355351 L127.852605,149.942423 L128.602142,146.72672 L126.226739,146.227977 L124.95399,150.903066 L134.653503,152.83995 L134.56881,153.384303 L137.228512,153.902368 L137.293953,153.356453 L140.849866,154.045122 L141.129494,149.337307 L138.664519,148.842616 L138.375713,152.046875 L137.464536,151.867591 L137.796839,148.616911 Z M136.565635,141.707098 C133.672655,141.081655 132.573642,142.468984 131.37742,143.651732 C131.01502,144.008356 130.538855,144.303035 130.112466,144.21227 C129.45488,144.071996 129.189988,143.69504 129.257668,143.363675 C129.329603,143.007764 129.800783,142.72553 130.623528,142.864646 L130.370861,141.341533 C128.633331,141.229657 127.245696,141.875155 127.023532,142.829708 C126.742019,144.004542 128.050513,145.300046 129.942596,145.699494 C132.107359,146.153034 133.159017,145.073819 134.090231,144.02499 C134.784088,143.22141 135.843444,143.029389 136.782214,143.228807 C137.936338,143.472992 138.943527,144.313709 138.879638,145.344487 C138.835148,146.015114 137.943787,146.487002 136.667647,146.539998 L137.426552,148.086643 C139.650023,147.995168 141.183594,147.099666 141.227501,145.829363 C141.274104,144.123172 139.16933,142.263944 136.565635,141.707098 Z M130.641325,135.987252 L128.593363,135.515399 L127.623817,140.276042 L129.822943,140.761712 L130.122951,139.104766 L141.355219,141.55322 L141.364777,140.07113 L130.373304,137.644198 L130.641325,135.987252 Z M141.276414,133.432861 L129.433872,130.644613 L129.314991,131.39114 C128.908654,133.789819 131.4094,136.442387 134.856256,137.222233 L136.369495,137.560954 L136.330294,138.105307 L138.457495,138.575553 L138.479497,138.02965 L141.363958,138.663767 L141.352675,137.181677 L138.53122,136.553231 L138.58835,134.295179 L141.314739,134.914951 L141.276414,133.432861 Z M136.5942,133.837086 L136.467398,136.088727 L134.987324,135.753036 C133.057154,135.311952 131.503355,134.028825 131.27152,132.593692 L136.5942,133.837086 Z M141.045355,128.015136 L139.2492,127.580244 C139.275046,128.64833 136.987646,129.138672 133.838894,128.962882 C133.494995,128.352177 132.827296,127.81141 132.073754,127.624987 C130.919083,127.337897 129.858015,127.882537 129.72619,128.812659 L129.517981,130.207843 L141.262714,132.984497 L141.210465,131.502407 L137.001958,130.511315 C139.619863,130.350295 141.128178,129.609317 141.06047,128.289136 L141.045355,128.015136 Z M131.922659,129.08633 C132.045902,129.116439 132.157698,129.257113 132.226041,129.361949 L131.577179,129.203676 C131.654132,129.083723 131.753327,129.044929 131.922659,129.08633 Z" id="Letter-of-Nestar" fill="#000000"></path>
            </g>
        </g>
    </g>
</svg>