<?xml version="1.0" encoding="UTF-8"?>
<svg width="552px" height="320px" viewBox="0 0 552 320" version="1.1" xmlns="http://www.w3.org/2000/svg" xmlns:xlink="http://www.w3.org/1999/xlink">
    <!-- Generator: Sketch 43.2 (39069) - http://www.bohemiancoding.com/sketch -->
    <title>Artboard</title>
    <desc>Created with Sketch.</desc>
    <defs></defs>
    <g id="Page-1" stroke="none" stroke-width="1" fill="none" fill-rule="evenodd">
        <g id="Artboard">
            <g id="Cannibalism" transform="translate(150.000000, 72.000000)">
                <g id="Blood" transform="translate(0.000000, 129.671298)" fill="#000000">
                    <ellipse id="Oval-2" cx="67.2447368" cy="24.2718071" rx="67.2447368" ry="24.2718071"></ellipse>
                    <ellipse id="Oval-2-Copy" cx="138.151316" cy="24.2718071" rx="49.6013158" ry="24.2718071"></ellipse>
                    <ellipse id="Oval-2-Copy-2" cx="209.723684" cy="25.9342596" rx="43.2763158" ry="16.6245254"></ellipse>
                </g>
                <polygon id="John-Body" fill="#FFFFFF" points="139.859997 59.9413579 95.6190943 77.1398922 102.454675 131.055592 147.194304 129.944195"></polygon>
                <g id="Dead-John" transform="translate(57.923684, 0.000000)" stroke="#FFFFFF">
                    <g id="Dead-Body" transform="translate(8.655263, 39.898861)" stroke-width="5" fill="#000000">
                        <path d="M62.9089932,72.6390447 L125.203765,71.7994314 C125.203765,71.7994314 130.372238,71.9225616 130.372238,78.2747177 C130.372238,84.6268739 126.507781,107.245564 126.507781,107.245564 L59.7342216,96.72459 L62.9089932,72.6390447 Z" id="Leg"></path>
                        <path d="M35.7077279,0.432017485 C35.7077279,0.432017485 63.0813374,72.6382421 63.0813374,76.6106597 C63.0813374,80.5830772 131.696058,86.2604279 131.696058,86.2604279 C131.696058,86.2604279 135.777109,85.7420361 135.777109,92.3851316 C135.777109,99.0282272 134.006667,112.984488 134.006667,112.984488 C134.006667,112.984488 132.960934,117.423458 128.04368,117.423458 C123.126426,117.423458 59.9018465,117.108583 33.9738097,109.336545 C8.04577285,101.564507 3.17080982,6.54328139 3.17080982,6.54328139" id="Body"></path>
                        <path d="M3.35801879,3.96875667 L0.79507016,64.3199434 C0.79507016,64.3199434 -1.49247164,107.816859 1.69278614,112.111832 C4.87804393,116.406804 20.1006794,116.36675 29.9660339,113.592129 C33.7946811,97.3737839 18.7878359,39.6963305 18.7878359,39.6963305" id="Hand"></path>
                    </g>
                    <g id="Dead-Head">
                        <ellipse id="Oval" stroke-width="6" fill="#000000" cx="24.9671053" cy="24.9367881" rx="24.9671053" ry="24.9367881"></ellipse>
                        <g id="Group-2" transform="translate(11.984211, 15.959544)" stroke-linecap="square" stroke-width="4">
                            <g id="Group" transform="translate(0.000000, 5.984829)">
                                <path d="M8.98815789,0.332490508 L2.33026316,10.9721868" id="Line"></path>
                                <path d="M0.332894737,6.64981016 L9.65394737,6.64981016" id="Line"></path>
                            </g>
                            <g id="Group-Copy" transform="translate(15.978947, 0.000000)">
                                <path d="M6.99078947,0.997471524 L3.00419123,10.0077754" id="Line"></path>
                                <path d="M0.332894737,5.31984813 L8.98815789,5.31984813" id="Line"></path>
                            </g>
                        </g>
                    </g>
                </g>
                <path d="M134.747935,56.4164731 C134.747935,56.4164731 152.069934,63.9866814 157.138033,72.3533872 C162.206132,80.7200929 164.01391,123.465583 164.01391,128.468422 C164.01391,133.471261 139.831413,135.978846 139.831413,135.978846 L139.831413,89.3821561" id="John-Left-Hand" stroke="#000000" stroke-width="6" fill="#FFFFFF"></path>
                <ellipse id="John-Right-Hand" stroke="#000000" stroke-width="5" fill="#FFFFFF" cx="68.5763158" cy="80.4627029" rx="7.32368421" ry="9.97471524"></ellipse>
                <g id="Blood-Copy" transform="translate(97.219318, 66.738128) rotate(-178.000000) translate(-97.219318, -66.738128) translate(80.219318, 56.238128)" fill="#FFFFFF">
                    <ellipse id="Oval-4" cx="21.764102" cy="15.4574159" rx="4.95132018" ry="2.57849782"></ellipse>
                    <path d="M7.02396489,16.7466648 C10.7328794,16.7466648 13.7395486,15.2520543 13.7395486,13.4083588 C13.7395486,11.5646634 10.1148659,12.6833701 6.4059514,12.6833701 C2.69703694,12.6833701 0.308381202,11.5646634 0.308381202,13.4083588 C0.308381202,15.2520543 3.31505043,16.7466648 7.02396489,16.7466648 Z" id="Oval-4-Copy-7"></path>
                    <ellipse id="Oval-4-Copy-9" transform="translate(1.481948, 10.803512) rotate(-11.000000) translate(-1.481948, -10.803512) " cx="1.48194767" cy="10.8035122" rx="1" ry="4.51237118"></ellipse>
                    <ellipse id="Oval-4-Copy-10" transform="translate(20.559508, 11.699387) rotate(48.000000) translate(-20.559508, -11.699387) " cx="20.5595077" cy="11.6993867" rx="1.65044006" ry="4.51237118"></ellipse>
                    <ellipse id="Oval-4-Copy-13" transform="translate(16.812782, 11.699387) rotate(48.000000) translate(-16.812782, -11.699387) " cx="16.8127818" cy="11.6993867" rx="1.65044006" ry="4.51237118"></ellipse>
                    <ellipse id="Oval-4-Copy-12" transform="translate(14.841219, 8.855873) rotate(27.000000) translate(-14.841219, -8.855873) " cx="14.8412192" cy="8.85587263" rx="1.026574" ry="4.51237118"></ellipse>
                    <ellipse id="Oval-4-Copy-14" transform="translate(20.267273, 6.803575) rotate(45.000000) translate(-20.267273, -6.803575) " cx="20.2672729" cy="6.80357499" rx="1.026574" ry="7.86530117"></ellipse>
                    <path d="M9.38580153,20.6144115 C14.3991223,20.6144115 18.4632219,18.5941541 18.4632219,16.1020403 C18.4632219,13.6099265 14.3991223,10.223941 9.38580153,10.223941 C7.85295646,10.223941 7.57067846,12.227356 6.30434548,12.5608277 C3.42901169,13.3180079 2.424783,9.70467829 2.424783,11.4348172 C2.424783,13.926931 4.37248072,20.6144115 9.38580153,20.6144115 Z" id="Oval-4-Copy-8"></path>
                    <ellipse id="Oval-4-Copy-15" cx="21.3657199" cy="7.6540672" rx="1.65044006" ry="1.28924891"></ellipse>
                    <ellipse id="Oval-4-Copy-4" cx="21.764102" cy="12.878918" rx="1.65044006" ry="1.28924891"></ellipse>
                    <ellipse id="Oval-4-Copy-2" cx="30.8415223" cy="12.2342936" rx="1" ry="1"></ellipse>
                    <ellipse id="Oval-4-Copy-16" cx="28.9065236" cy="7.00944275" rx="1" ry="1"></ellipse>
                    <ellipse id="Oval-4-Copy-18" cx="32.4919624" cy="3.20955123" rx="1" ry="1"></ellipse>
                    <ellipse id="Oval-4-Copy-6" cx="28.4939136" cy="13.3369407" rx="1" ry="1"></ellipse>
                    <ellipse id="Oval-4-Copy-5" cx="25.8902021" cy="12.2342936" rx="1" ry="1"></ellipse>
                    <ellipse id="Oval-4-Copy-3" cx="24.2397621" cy="13.5235425" rx="1" ry="1"></ellipse>
                </g>
                <g id="Blood-Copy" transform="translate(94.695091, 72.766352) rotate(-134.000000) translate(-94.695091, -72.766352) translate(77.695091, 62.266352)" fill="#FFFFFF">
                    <ellipse id="Oval-4" cx="21.764102" cy="15.4574159" rx="4.95132018" ry="2.57849782"></ellipse>
                    <path d="M7.02396489,16.7466648 C10.7328794,16.7466648 13.7395486,15.2520543 13.7395486,13.4083588 C13.7395486,11.5646634 10.1148659,12.6833701 6.4059514,12.6833701 C2.69703694,12.6833701 0.308381202,11.5646634 0.308381202,13.4083588 C0.308381202,15.2520543 3.31505043,16.7466648 7.02396489,16.7466648 Z" id="Oval-4-Copy-7"></path>
                    <ellipse id="Oval-4-Copy-9" transform="translate(1.481948, 10.803512) rotate(-11.000000) translate(-1.481948, -10.803512) " cx="1.48194767" cy="10.8035122" rx="1" ry="4.51237118"></ellipse>
                    <ellipse id="Oval-4-Copy-10" transform="translate(20.559508, 11.699387) rotate(48.000000) translate(-20.559508, -11.699387) " cx="20.5595077" cy="11.6993867" rx="1.65044006" ry="4.51237118"></ellipse>
                    <ellipse id="Oval-4-Copy-13" transform="translate(16.812782, 11.699387) rotate(48.000000) translate(-16.812782, -11.699387) " cx="16.8127818" cy="11.6993867" rx="1.65044006" ry="4.51237118"></ellipse>
                    <ellipse id="Oval-4-Copy-12" transform="translate(14.841219, 8.855873) rotate(27.000000) translate(-14.841219, -8.855873) " cx="14.8412192" cy="8.85587263" rx="1.026574" ry="4.51237118"></ellipse>
                    <ellipse id="Oval-4-Copy-14" transform="translate(20.267273, 6.803575) rotate(45.000000) translate(-20.267273, -6.803575) " cx="20.2672729" cy="6.80357499" rx="1.026574" ry="7.86530117"></ellipse>
                    <path d="M9.38580153,20.6144115 C14.3991223,20.6144115 18.4632219,18.5941541 18.4632219,16.1020403 C18.4632219,13.6099265 14.3991223,10.223941 9.38580153,10.223941 C7.85295646,10.223941 7.57067846,12.227356 6.30434548,12.5608277 C3.42901169,13.3180079 2.424783,9.70467829 2.424783,11.4348172 C2.424783,13.926931 4.37248072,20.6144115 9.38580153,20.6144115 Z" id="Oval-4-Copy-8"></path>
                    <ellipse id="Oval-4-Copy-15" cx="21.3657199" cy="7.6540672" rx="1.65044006" ry="1.28924891"></ellipse>
                    <ellipse id="Oval-4-Copy-4" cx="21.764102" cy="12.878918" rx="1.65044006" ry="1.28924891"></ellipse>
                    <ellipse id="Oval-4-Copy-2" cx="30.8415223" cy="12.2342936" rx="1" ry="1"></ellipse>
                    <ellipse id="Oval-4-Copy-16" cx="28.9065236" cy="7.00944275" rx="1" ry="1"></ellipse>
                    <ellipse id="Oval-4-Copy-18" cx="32.4919624" cy="3.20955123" rx="1" ry="1"></ellipse>
                    <ellipse id="Oval-4-Copy-6" cx="28.4939136" cy="13.3369407" rx="1" ry="1"></ellipse>
                    <ellipse id="Oval-4-Copy-5" cx="25.8902021" cy="12.2342936" rx="1" ry="1"></ellipse>
                    <ellipse id="Oval-4-Copy-3" cx="24.2397621" cy="13.5235425" rx="1" ry="1"></ellipse>
                </g>
                <ellipse id="John-Head" stroke="#000000" stroke-width="6" fill="#FFFFFF" transform="translate(117.226704, 55.997845) rotate(-23.000000) translate(-117.226704, -55.997845) " cx="117.226704" cy="55.9978448" rx="21.6857706" ry="22.276864"></ellipse>
                <g id="Blood" transform="translate(101.865789, 56.523386)" fill="#000000">
                    <ellipse id="Oval-4" cx="17.6848411" cy="14.7924348" rx="3.91496483" ry="2.57849782"></ellipse>
                    <path d="M6.02994583,16.0816838 C8.96255151,16.0816838 11.3398981,14.5870733 11.3398981,12.7433778 C11.3398981,10.8996823 8.47389373,12.0183891 5.54128806,12.0183891 C2.60868238,12.0183891 0.719993532,10.8996823 0.719993532,12.7433778 C0.719993532,14.5870733 3.09734015,16.0816838 6.02994583,16.0816838 Z" id="Oval-4-Copy-7"></path>
                    <ellipse id="Oval-4-Copy-9" transform="translate(1.674921, 10.133283) rotate(-11.000000) translate(-1.674921, -10.133283) " cx="1.64741677" cy="10.1332831" rx="1" ry="4.51237118"></ellipse>
                    <ellipse id="Oval-4-Copy-10" transform="translate(16.732379, 11.034406) rotate(48.000000) translate(-16.732379, -11.034406) " cx="16.7323791" cy="11.0344057" rx="1.30498828" ry="4.51237118"></ellipse>
                    <ellipse id="Oval-4-Copy-13" transform="translate(13.769876, 11.034406) rotate(48.000000) translate(-13.769876, -11.034406) " cx="13.7698763" cy="11.0344057" rx="1.30498828" ry="4.51237118"></ellipse>
                    <ellipse id="Oval-4-Copy-12" transform="translate(12.210979, 8.190892) rotate(27.000000) translate(-12.210979, -8.190892) " cx="12.2109793" cy="8.19089162" rx="1" ry="4.51237118"></ellipse>
                    <ellipse id="Oval-4-Copy-14" transform="translate(16.501312, 6.138594) rotate(45.000000) translate(-16.501312, -6.138594) " cx="16.5013117" cy="6.13859398" rx="1" ry="7.86530117"></ellipse>
                    <path d="M7.89742906,19.9494305 C11.8614172,19.9494305 15.0748646,17.9291731 15.0748646,15.4370593 C15.0748646,12.9449455 11.8614172,9.55896 7.89742906,9.55896 C6.68542209,9.55896 6.46222739,11.562375 5.46094917,11.8958467 C3.18744831,12.6530269 2.39341361,9.03969727 2.39341361,10.7698362 C2.39341361,13.26195 3.93344087,19.9494305 7.89742906,19.9494305 Z" id="Oval-4-Copy-8"></path>
                    <ellipse id="Oval-4-Copy" cx="23.039793" cy="3.18919467" rx="1.30498828" ry="1.28924891"></ellipse>
                    <ellipse id="Oval-4-Copy-15" cx="17.369844" cy="6.98908619" rx="1.30498828" ry="1.28924891"></ellipse>
                    <ellipse id="Oval-4-Copy-4" cx="17.6848411" cy="12.213937" rx="1.30498828" ry="1.28924891"></ellipse>
                    <ellipse id="Oval-4-Copy-2" cx="24.8622767" cy="11.5693126" rx="1" ry="1"></ellipse>
                    <ellipse id="Oval-4-Copy-11" cx="25.2222734" cy="9.19438037" rx="1" ry="1"></ellipse>
                    <ellipse id="Oval-4-Copy-16" cx="23.3322904" cy="6.34446173" rx="1" ry="1"></ellipse>
                    <ellipse id="Oval-4-Copy-18" cx="26.1672649" cy="2.54457021" rx="1" ry="1"></ellipse>
                    <ellipse id="Oval-4-Copy-6" cx="23.0060433" cy="12.6719597" rx="1" ry="1"></ellipse>
                    <ellipse id="Oval-4-Copy-17" cx="27.7310009" cy="0.322312227" rx="1" ry="1"></ellipse>
                    <ellipse id="Oval-4-Copy-5" cx="20.9473118" cy="11.5693126" rx="1" ry="1"></ellipse>
                    <ellipse id="Oval-4-Copy-3" cx="19.6423236" cy="12.8585615" rx="1" ry="1"></ellipse>
                </g>
            </g>
        </g>
    </g>
</svg>