<?xml version="1.0" encoding="UTF-8"?>
<svg width="552px" height="320px" viewBox="0 0 552 320" version="1.1" xmlns="http://www.w3.org/2000/svg" xmlns:xlink="http://www.w3.org/1999/xlink">
    <!-- Generator: Sketch 43.2 (39069) - http://www.bohemiancoding.com/sketch -->
    <title>Artboard</title>
    <desc>Created with Sketch.</desc>
    <defs></defs>
    <g id="Page-1" stroke="none" stroke-width="1" fill="none" fill-rule="evenodd">
        <g id="Artboard">
            <g id="Priest" transform="translate(259.000000, 50.000000)" stroke="#000000">
                <path d="M66.1806564,61.6923613 C66.1806564,61.6923613 33.1559817,106.931382 10.648467,120.387789 C17.8938361,134.761801 34.7775468,140.509647 34.7775468,140.509647 L74.7852646,101.013102" id="Path-14" stroke-width="6" fill="#FFFFFF" transform="translate(42.716866, 101.101004) rotate(17.000000) translate(-42.716866, -101.101004) "></path>
                <path d="M78.5782159,66.9673313 C78.5782159,66.9673313 71.4289297,96.7554181 67.2423447,130.304979 C63.0557597,163.854539 62.2637409,197.250357 67.2423447,202.16863 C72.2209485,207.086903 119.508246,208.872681 119.508246,208.872681 C119.508246,208.872681 108.893684,85.3468874 108.893684,69.9224709 C108.893684,54.4980545 78.5782159,66.9673313 78.5782159,66.9673313 Z" id="Path-13" stroke-width="7" fill="#FFFFFF"></path>
                <path d="M103.850093,62.1628375 C103.850093,62.1628375 123.439767,83.7738636 138.359273,75.6317423 C153.278779,67.4896211 143.319268,48.0800986 143.319268,48.0800986 C155.691764,49.8591741 173.013367,52.8912776 173.013367,52.8912776 C173.013367,52.8912776 175.007574,102.439044 138.359273,102.439044 C101.710972,102.439044 118.535761,99.650552 114.231148,99.2209797 C108.067706,123.112619 118.535761,167.298216 118.535761,179.28185 C127.360189,186.31707 151.436072,188.996006 151.436072,188.996006 L151.378436,215.368152 C151.378436,215.368152 93.2746989,218.318789 93.2746989,189.87464 C93.2746989,161.430491 94.6102088,152.735945 94.6102088,152.735945" id="Path-12" stroke-width="7" fill="#FFFFFF"></path>
                <g id="Cross" transform="translate(151.722477, 0.000000)" stroke-width="6" stroke-linecap="square">
                    <path d="M0.411067394,15.6242334 L25.075111,15.6242334" id="Line"></path>
                    <path d="M13.1541566,0.411164036 L13.1541566,47.291077" id="Line"></path>
                </g>
                <ellipse id="Oval" stroke-width="7" fill="#FFFFFF" cx="90.1963621" cy="40.7052395" rx="28.3636502" ry="28.3703185"></ellipse>
            </g>
            <g id="Devil" transform="translate(114.000000, 170.000000)">
                <path d="M40.1427735,32.4240419 C40.1427735,32.4240419 83.2093153,38.7712741 90.093904,46.6419387 C96.9784927,54.5126032 107.522926,71.5486083 83.9094539,77.6616521 C60.2959822,83.7746958 0,76.796724 0,76.796724 L0.342047516,50.4885449 L39.0742761,48.6699626" id="Leg-Copy" stroke="#FFFFFF" stroke-width="6" fill="#000000"></path>
                <path d="M139.50958,20.909086 C139.50958,20.909086 72.4061205,6.29516968 42.9496,12.62677 C21.1079282,34.4677355 22.7630041,53.0622087 41.5993845,62.5282724 C52.824901,68.1695607 96.1667978,80.9588206 126.029304,75.9988157 C146.275986,72.6359485 150.585333,42.2225858 150.585333,42.2225858 L139.50958,20.909086 Z" id="Path-15" stroke="#FFFFFF" stroke-width="6" fill="#000000"></path>
                <path d="M124.484714,39.031238 C124.484714,39.031238 175.69592,72.9082667 212.935728,70.4263207 C217.118072,76.4764808 214.309755,95.78458 214.309755,95.78458 C214.309755,95.78458 152.282875,101.499324 125.49361,80.9522522" id="Hand" stroke="#FFFFFF" stroke-width="6" fill="#000000"></path>
                <path d="M63.2036938,46.3830526 C63.2036938,46.3830526 110.783442,53.3954502 118.389509,62.0909299 C125.995576,70.7864096 137.645025,89.607722 111.556953,96.3613891 C85.4688806,103.115056 18.8541132,95.4058199 18.8541132,95.4058199 L19.2320059,66.3406455 L62.023222,64.3314829" id="Leg" stroke="#FFFFFF" stroke-width="6" fill="#000000"></path>
                <path d="M62.9698316,46.6012181 C62.9698316,46.6012181 110.54958,53.6136157 118.155647,62.3090953 C125.761714,71.004575 137.411162,89.8258874 111.32309,96.5795545 C85.2350184,103.333222 18.620251,95.6239853 18.620251,95.6239853 L18.9981438,66.558811 L61.7893599,64.5496484" id="Leg" stroke="#FFFFFF" stroke-width="6" fill="#000000"></path>
                <g id="Head" transform="translate(137.356287, 0.000000)">
                    <ellipse id="Oval-2" stroke="#FFFFFF" stroke-width="7" fill="#000000" cx="26.1570193" cy="26.2422769" rx="26.1570193" ry="26.2422769"></ellipse>
                    <ellipse id="Oval-4" fill="#FFFFFF" cx="35.3957597" cy="23.550161" rx="7.09342896" ry="7.11654966"></ellipse>
                    <ellipse id="Oval-3" fill="#FFFFFF" cx="17.1361915" cy="23.550161" rx="7.09342896" ry="7.11654966"></ellipse>
                </g>
            </g>
        </g>
    </g>
</svg>