<?xml version="1.0" encoding="UTF-8"?>
<svg width="552px" height="320px" viewBox="0 0 552 320" version="1.1" xmlns="http://www.w3.org/2000/svg" xmlns:xlink="http://www.w3.org/1999/xlink">
    <!-- Generator: Sketch 43.2 (39069) - http://www.bohemiancoding.com/sketch -->
    <title>Artboard</title>
    <desc>Created with Sketch.</desc>
    <defs>
        <rect id="path-1" x="0" y="0" width="73.6558442" height="170.557648"></rect>
    </defs>
    <g id="Page-1" stroke="none" stroke-width="1" fill="none" fill-rule="evenodd">
        <g id="Artboard">
            <g id="Group" transform="translate(243.311688, 75.000000)" stroke="#000000" fill="#FFFFFF">
                <path d="M24.1756545,33.5156951 C24.1756545,33.5156951 2.84284821,52.746705 0,102.047951 C0.194032758,102.047951 8.70805085,103.127972 11.4239113,103.248023 C15.0289765,94.0802377 18.3141353,61.9814043 18.3141353,61.9814043 L13.0348863,153.20631 L29.6216117,153.20631 L32.6676645,96.628056 L35.7819836,153.20631 L52.368709,153.20631 L47.0894599,61.9814043 C47.0894599,61.9814043 50.3746188,94.0802377 53.979684,103.248023 C56.6955444,103.127972 65.2095625,102.047951 65.4035953,102.047951 C62.5607471,52.746705 41.2279408,33.5156951 41.2279408,33.5156951 L32.6768257,20.0509521 L24.1756545,33.5156951 Z" id="Path-20" stroke-width="5"></path>
                <ellipse id="Oval-7" stroke-width="6" cx="31.6199331" cy="16.7578475" rx="16.7399646" ry="16.7578475"></ellipse>
            </g>
            <g id="Group-Copy-3" transform="translate(169.655844, 75.000000)" stroke="#000000" fill="#FFFFFF">
                <path d="M24.1756545,33.5156951 C24.1756545,33.5156951 2.84284821,52.746705 0,102.047951 C0.194032758,102.047951 8.70805085,103.127972 11.4239113,103.248023 C15.0289765,94.0802377 18.3141353,61.9814043 18.3141353,61.9814043 L13.0348863,153.20631 L29.6216117,153.20631 L32.6676645,96.628056 L35.7819836,153.20631 L52.368709,153.20631 L47.0894599,61.9814043 C47.0894599,61.9814043 50.3746188,94.0802377 53.979684,103.248023 C56.6955444,103.127972 65.2095625,102.047951 65.4035953,102.047951 C62.5607471,52.746705 41.2279408,33.5156951 41.2279408,33.5156951 L32.6768257,20.0509521 L24.1756545,33.5156951 Z" id="Path-20" stroke-width="5"></path>
                <ellipse id="Oval-7" stroke-width="6" cx="31.6199331" cy="16.7578475" rx="16.7399646" ry="16.7578475"></ellipse>
            </g>
            <g id="Group-Copy-4" transform="translate(96.000000, 75.000000)" stroke="#000000" fill="#FFFFFF">
                <path d="M24.1756545,33.5156951 C24.1756545,33.5156951 2.84284821,52.746705 0,102.047951 C0.194032758,102.047951 8.70805085,103.127972 11.4239113,103.248023 C15.0289765,94.0802377 18.3141353,61.9814043 18.3141353,61.9814043 L13.0348863,153.20631 L29.6216117,153.20631 L32.6676645,96.628056 L35.7819836,153.20631 L52.368709,153.20631 L47.0894599,61.9814043 C47.0894599,61.9814043 50.3746188,94.0802377 53.979684,103.248023 C56.6955444,103.127972 65.2095625,102.047951 65.4035953,102.047951 C62.5607471,52.746705 41.2279408,33.5156951 41.2279408,33.5156951 L32.6768257,20.0509521 L24.1756545,33.5156951 Z" id="Path-20" stroke-width="5"></path>
                <ellipse id="Oval-7" stroke-width="6" cx="31.6199331" cy="16.7578475" rx="16.7399646" ry="16.7578475"></ellipse>
            </g>
            <g id="Group-Copy" transform="translate(316.967532, 75.000000)" stroke="#000000" fill="#FFFFFF">
                <path d="M24.1756545,33.5156951 C24.1756545,33.5156951 2.84284821,52.746705 0,102.047951 C0.194032758,102.047951 8.70805085,103.127972 11.4239113,103.248023 C15.0289765,94.0802377 18.3141353,61.9814043 18.3141353,61.9814043 L13.0348863,153.20631 L29.6216117,153.20631 L32.6676645,96.628056 L35.7819836,153.20631 L52.368709,153.20631 L47.0894599,61.9814043 C47.0894599,61.9814043 50.3746188,94.0802377 53.979684,103.248023 C56.6955444,103.127972 65.2095625,102.047951 65.4035953,102.047951 C62.5607471,52.746705 41.2279408,33.5156951 41.2279408,33.5156951 L32.6768257,20.0509521 L24.1756545,33.5156951 Z" id="Path-20" stroke-width="5"></path>
                <ellipse id="Oval-7" stroke-width="6" cx="31.6199331" cy="16.7578475" rx="16.7399646" ry="16.7578475"></ellipse>
            </g>
            <g id="Group-Copy-2" transform="translate(390.623377, 75.000000)" stroke="#000000" fill="#FFFFFF">
                <path d="M24.1756545,33.5156951 C24.1756545,33.5156951 2.84284821,52.746705 0,102.047951 C0.194032758,102.047951 8.70805085,103.127972 11.4239113,103.248023 C15.0289765,94.0802377 18.3141353,61.9814043 18.3141353,61.9814043 L13.0348863,153.20631 L29.6216117,153.20631 L32.6676645,96.628056 L35.7819836,153.20631 L52.368709,153.20631 L47.0894599,61.9814043 C47.0894599,61.9814043 50.3746188,94.0802377 53.979684,103.248023 C56.6955444,103.127972 65.2095625,102.047951 65.4035953,102.047951 C62.5607471,52.746705 41.2279408,33.5156951 41.2279408,33.5156951 L32.6768257,20.0509521 L24.1756545,33.5156951 Z" id="Path-20" stroke-width="5"></path>
                <ellipse id="Oval-7" stroke-width="6" cx="31.6199331" cy="16.7578475" rx="16.7399646" ry="16.7578475"></ellipse>
            </g>
            <g id="Group-4" transform="translate(238.103699, 75.536522)">
                <mask id="mask-2" fill="white">
                    <use xlink:href="#path-1"></use>
                </mask>
                <g id="Mask"></g>
                <g mask="url(#mask-2)" id="Rectangle-9" fill="#FFFFFF">
                    <g transform="translate(0.783573, 4.468759)">
                        <rect x="0" y="0" width="72.8722713" height="5.95834579"></rect>
                        <rect x="0" y="12.9097492" width="72.8722713" height="5.95834579"></rect>
                        <rect x="0" y="25.8194984" width="72.8722713" height="5.95834579"></rect>
                        <rect x="0" y="38.7292476" width="72.8722713" height="5.95834579"></rect>
                        <rect x="0" y="51.6389968" width="72.8722713" height="5.95834579"></rect>
                        <rect x="0" y="64.5487461" width="72.8722713" height="5.95834579"></rect>
                        <rect x="0" y="77.4584953" width="72.8722713" height="5.95834579"></rect>
                        <rect x="0" y="90.3682445" width="72.8722713" height="5.95834579"></rect>
                        <rect x="0" y="103.277994" width="72.8722713" height="5.95834579"></rect>
                        <rect x="0" y="116.187743" width="72.8722713" height="5.95834579"></rect>
                        <rect x="0" y="129.097492" width="72.8722713" height="5.95834579"></rect>
                        <rect x="0" y="142.007241" width="72.8722713" height="5.95834579"></rect>
                        <rect x="0" y="154.916991" width="72.8722713" height="5.95834579"></rect>
                    </g>
                </g>
            </g>
        </g>
    </g>
</svg>