<?xml version="1.0" encoding="UTF-8"?>
<svg width="552px" height="320px" viewBox="0 0 552 320" version="1.1" xmlns="http://www.w3.org/2000/svg" xmlns:xlink="http://www.w3.org/1999/xlink">
    <!-- Generator: Sketch 43.2 (39069) - http://www.bohemiancoding.com/sketch -->
    <title>Artboard</title>
    <desc>Created with Sketch.</desc>
    <defs></defs>
    <g id="Page-1" stroke="none" stroke-width="1" fill="none" fill-rule="evenodd">
        <g id="Artboard">
            <g id="Group" transform="translate(135.000000, 73.000000)">
                <ellipse id="Oval" fill="#000000" cx="215.438424" cy="75.3514644" rx="41.1921182" ry="41.1338912"></ellipse>
                <ellipse id="Oval-Copy" fill="#000000" cx="181.172414" cy="116.849372" rx="41.1921182" ry="41.1338912"></ellipse>
                <ellipse id="Oval-Copy-2" fill="#000000" cx="211.064039" cy="103.74477" rx="41.1921182" ry="41.1338912"></ellipse>
                <ellipse id="Oval-Copy-8" fill="#000000" cx="157.477833" cy="145.606695" rx="27.7044335" ry="27.665272"></ellipse>
                <ellipse id="Oval-Copy-29" fill="#000000" cx="194.660099" cy="146.334728" rx="27.7044335" ry="27.665272"></ellipse>
                <ellipse id="Oval-Copy-9" fill="#000000" cx="57.5960591" cy="120.853556" rx="27.7044335" ry="27.665272"></ellipse>
                <ellipse id="Oval-Copy-18" fill="#000000" cx="40.4630542" cy="151.066946" rx="22.9655172" ry="22.9330544"></ellipse>
                <ellipse id="Oval-Copy-19" fill="#000000" cx="17.862069" cy="156.16318" rx="17.862069" ry="17.8368201"></ellipse>
                <ellipse id="Oval-Copy-17" fill="#000000" cx="78.0098522" cy="144.878661" rx="27.7044335" ry="27.665272"></ellipse>
                <ellipse id="Oval-Copy-4" fill="#000000" cx="159.300493" cy="90.6401674" rx="41.1921182" ry="41.1338912"></ellipse>
                <ellipse id="Oval-Copy-7" fill="#000000" cx="104.256158" cy="35.6736402" rx="35.7241379" ry="35.6736402"></ellipse>
                <ellipse id="Oval-Copy-5" fill="#000000" cx="89.3103448" cy="76.0794979" rx="41.1921182" ry="41.1338912"></ellipse>
                <ellipse id="Oval-Copy-6" fill="#000000" cx="76.9162562" cy="92.8242678" rx="41.1921182" ry="41.1338912"></ellipse>
                <ellipse id="Oval-Copy-3" fill="#000000" cx="98.7881773" cy="131.410042" rx="41.1921182" ry="41.1338912"></ellipse>
                <ellipse id="Oval-Copy-15" fill="#000000" cx="129.408867" cy="129.953975" rx="41.1921182" ry="41.1338912"></ellipse>
                <ellipse id="Oval-Copy-14" fill="#000000" cx="139.980296" cy="53.1464435" rx="23.3300493" ry="23.2970711"></ellipse>
                <g id="Group-Copy-2" transform="translate(105.714286, 12.376569)" stroke="#000000" fill="#FFFFFF">
                    <path d="M25.3056259,34.9880164 C25.3056259,34.9880164 2.97572308,55.0638314 0,106.530847 C0.203101859,106.530847 9.1150656,107.658312 11.9578655,107.783637 C15.7314317,98.2131176 19.170139,64.7042046 19.170139,64.7042046 L13.6441376,159.936558 L31.0061273,159.936558 L34.1945529,100.87286 L37.4544354,159.936558 L54.8164252,159.936558 L49.2904238,64.7042046 C49.2904238,64.7042046 52.7291311,98.2131176 56.5026972,107.783637 C59.3454971,107.658312 68.2574609,106.530847 68.4605627,106.530847 C65.4848397,55.0638314 43.1549369,34.9880164 43.1549369,34.9880164 L34.2041423,20.9317766 L25.3056259,34.9880164 Z" id="Path-20" stroke-width="5"></path>
                    <ellipse id="Oval-7" stroke-width="6" cx="33.0978504" cy="17.4940082" rx="17.5223914" ry="17.4940082"></ellipse>
                </g>
                <ellipse id="Oval-Copy-10" fill="#000000" cx="170.236453" cy="140.874477" rx="20.0492611" ry="20.0209205"></ellipse>
                <ellipse id="Oval-Copy-12" fill="#000000" cx="174.975369" cy="117.941423" rx="15.3103448" ry="15.2887029"></ellipse>
                <ellipse id="Oval-Copy-13" fill="#000000" cx="102.433498" cy="88.4560669" rx="12.7586207" ry="12.7405858"></ellipse>
                <ellipse id="Oval-Copy-16" fill="#000000" cx="114.827586" cy="85.5439331" rx="7.65517241" ry="7.64435146"></ellipse>
                <ellipse id="Oval-Copy-21" fill="#000000" cx="108.995074" cy="93.5523013" rx="6.19704433" ry="6.18828452"></ellipse>
                <ellipse id="Oval-Copy-20" fill="#000000" cx="125.763547" cy="70.2552301" rx="14.2167488" ry="14.1966527"></ellipse>
                <ellipse id="Oval-Copy-11" fill="#000000" cx="102.433498" cy="70.9832636" rx="20.0492611" ry="20.0209205"></ellipse>
                <ellipse id="Oval-Copy-23" fill="#000000" cx="272.669951" cy="149.974895" rx="23.3300493" ry="23.2970711"></ellipse>
                <ellipse id="Oval-Copy-26" fill="#000000" cx="249.339901" cy="124.493724" rx="23.3300493" ry="23.2970711"></ellipse>
                <ellipse id="Oval-Copy-24" fill="#000000" cx="234.758621" cy="130.317992" rx="23.3300493" ry="23.2970711"></ellipse>
                <ellipse id="Oval-Copy-27" fill="#000000" cx="245.694581" cy="144.878661" rx="23.3300493" ry="23.2970711"></ellipse>
                <ellipse id="Oval-Copy-28" fill="#000000" cx="223.82266" cy="144.150628" rx="23.3300493" ry="23.2970711"></ellipse>
                <ellipse id="Oval-Copy-25" fill="#000000" cx="45.2019704" cy="92.460251" rx="23.3300493" ry="23.2970711"></ellipse>
            </g>
        </g>
    </g>
</svg>