<?xml version="1.0" encoding="UTF-8"?>
<svg width="552px" height="320px" viewBox="0 0 552 320" version="1.1" xmlns="http://www.w3.org/2000/svg" xmlns:xlink="http://www.w3.org/1999/xlink">
    <!-- Generator: Sketch 43.2 (39069) - http://www.bohemiancoding.com/sketch -->
    <title>Artboard</title>
    <desc>Created with Sketch.</desc>
    <defs></defs>
    <g id="Page-1" stroke="none" stroke-width="1" fill="none" fill-rule="evenodd">
        <g id="Artboard">
            <polygon id="Path-6" fill="#FFFFFF" points="246 172 259 133 271 175 286 179 270 222 269 248 248 256"></polygon>
            <g id="Pic" transform="translate(147.000000, 26.000000)">
                <path d="M125.591509,224.455347 C127.674797,223.725501 131.162113,223.157919 133.354823,223.187271 L208.704148,224.195926 C210.908419,224.225433 211.198817,225.245452 209.365701,226.465594 L148.881933,266.724253 C147.043027,267.948249 143.760585,268.940494 141.545798,268.940494 L2.61866651,268.940494 C0.405937374,268.940494 0.301152695,268.348785 2.38429384,267.61899 L125.591509,224.455347 Z" id="shadow" fill="#000000"></path>
                <g id="John" transform="translate(77.590909, 93.531609)">
                    <path d="M59.9411555,81.7908896 C59.729609,83.7017821 59.2882636,85.6879446 58.5373991,87.7089456 C54.3859812,90.2140071 49.3820875,91.5317441 44.4645931,92.1597249 C44.6966155,92.715712 45.1616756,94.8422867 43.6060641,101.800767 C57.9242619,116.004807 52.995962,158.852813 52.995962,158.852813 L42.4620191,158.852813 L33.2272727,158.852813 L33.4921889,157.262898 C32.90339,159.984734 32.423198,161.559146 32.423198,161.559146 L10.521462,161.559146 C10.521462,161.559146 14.3920597,137.945054 5.20309855,110.9465 C-3.9858626,83.9479466 3.96929606,68.4623477 3.96929606,68.4623477 L29.469025,29.0926584 C28.8971683,27.0948311 28.5909091,24.9847734 28.5909091,22.8031609 C28.5909091,10.2093229 38.7967817,0 51.3863636,0 C63.9759455,0 74.1818182,10.2093229 74.1818182,22.8031609 C74.1818182,35.3969989 63.9759455,45.6063218 51.3863636,45.6063218 C41.3200737,45.6063218 32.7777295,39.0793281 29.7578697,30.0252307 L29.4044882,46.8754956 L30.6609652,45.6063218 L32.9354974,61.5643616 C32.9354974,61.5643616 33.2156077,65.5190734 36.7469986,65.5190734 C39.3259296,65.5190734 48.3033424,64.5855651 52.9583772,64.0820077 L45.673241,45.6063218 L44.943676,52.1227699 C44.943676,52.1227699 43.6586158,55.9765246 49.3128807,55.400099 C54.9671457,54.8236733 64.2457716,49.8279846 73.0087364,45.6063218 C79.753802,51.363482 82.5138167,66.792693 79.753802,73.8642783 C76.9937873,80.9358636 59.941502,81.7917683 59.941502,81.7917683 Z M28.4524447,92.2717211 L28.1730307,105.595001 C36.3154152,120.218059 36.3165292,137.108709 34.9562461,148.476243 L44.3371766,92.1758449 C38.3301232,92.9286937 32.4641895,92.658032 28.4524447,92.2717211 Z" id="Combined-Shape" fill="#FFFFFF"></path>
                    <g id="Group" transform="translate(0.225250, 0.002274)" stroke-width="6">
                        <ellipse id="Oval" stroke="#040303" fill="#FFFFFF" cx="50.6136364" cy="22.8031609" rx="22.7954545" ry="22.8031609"></ellipse>
                        <path d="M29.0150201,27.8275862 L3.19656879,67.6893592 C3.19656879,67.6893592 -4.75858987,83.174958 4.43037127,110.173512 C13.6193324,137.172065 9.7487347,160.786157 9.7487347,160.786157 L31.6504708,160.786157 C31.6504708,160.786157 41.1745514,129.559437 27.4003034,104.822013" id="Path-2" stroke="#000000"></path>
                        <path d="M32.4545455,158.852813 L41.6892919,158.852813 L52.2232348,158.852813 C52.2232348,158.852813 57.1515346,116.004807 42.8333369,101.800767 C44.7525076,93.2160321 43.5961432,91.9856322 43.5961432,91.9856322" id="Path-3" stroke="#000000"></path>
                        <path d="M29.8882379,45.6063218 L32.1627701,61.5643616 C32.1627701,61.5643616 32.4428804,65.5190734 35.9742713,65.5190734 C39.5056622,65.5190734 55.0345056,63.7687018 55.0345056,63.7687018 C55.0345056,63.7687018 62.4656142,75.0560514 57.7646718,87.7089456 C44.4867149,95.7211716 22.4880505,91.5872378 22.4880505,91.5872378 C22.4880505,91.5872378 13.5663548,77.0611548 14.7986584,60.8483832" id="Path-4" stroke="#000000"></path>
                        <path d="M45.673241,45.6063218 L44.943676,52.1227699 C44.943676,52.1227699 43.6586158,55.9765246 49.3128807,55.400099 C54.9671457,54.8236733 64.2457716,49.8279846 73.0087364,45.6063218 C79.753802,51.363482 82.5138167,66.792693 79.753802,73.8642783 C76.9937873,80.9358636 59.941502,81.7917683 59.941502,81.7917683" id="Path-5" stroke="#000000"></path>
                    </g>
                </g>
                <g id="Door" transform="translate(145.590909, 0.000000)">
                    <path d="M10.8181818,260.696817 L67.261252,223.736716 L68.7727273,47.0447546 L10.8181818,8.34944469 L10.8181818,260.696817 Z M8.5,0 L72.9450673,43.0289261 L71.3641796,227.835222 L8.5,269 L8.5,0 Z M0,0 L8.5,0 L8.5,269 L0,269 L0,0 Z" id="Combined-Shape" fill="#000000" fill-rule="nonzero"></path>
                    <polygon id="Rectangle" fill="#FFFFFF" points="10.8181818 8.5053077 68.9688858 47.1795876 67.1584975 223.655459 10.8181818 260.628791"></polygon>
                    <path d="M22.5624541,131.615431 L24.8435839,144.653006 L17.7727273,149.468294 L20.0538571,131.339707 C18.7204566,130.251522 17.7727273,127.606091 17.7727273,124.675508 C17.7727273,120.888172 19.3555924,118.895868 21.3081556,120.225573 C23.2607187,121.555278 24.8435839,124.769246 24.8435839,127.404171 C24.8435839,129.443037 23.8958546,131.038989 22.5624541,131.615431 Z" id="Keyhole" fill="#000000"></path>
                </g>
            </g>
        </g>
    </g>
</svg>