<?xml version="1.0" encoding="UTF-8"?>
<svg width="552px" height="320px" viewBox="0 0 552 320" version="1.1" xmlns="http://www.w3.org/2000/svg" xmlns:xlink="http://www.w3.org/1999/xlink">
    <!-- Generator: Sketch 43.2 (39069) - http://www.bohemiancoding.com/sketch -->
    <title>Artboard</title>
    <desc>Created with Sketch.</desc>
    <defs></defs>
    <g id="Page-1" stroke="none" stroke-width="1" fill="none" fill-rule="evenodd">
        <g id="Artboard">
            <g id="Group-5" transform="translate(96.000000, 69.000000)">
                <g id="Group-4">
                    <path d="M29.1390981,40.6228968 C29.1390981,40.6228968 3.79164093,63.4568261 0.413793103,121.994634 C0.64434116,121.994634 10.7606243,123.276996 13.9875864,123.419539 C18.2710939,112.534174 22.1744914,74.4216413 22.1744914,74.4216413 L15.901733,182.737484 L35.6099377,182.737484 L39.2292315,115.559325 L42.9296387,182.737484 L62.6378433,182.737484 L56.3650849,74.4216413 C56.3650849,74.4216413 60.2684824,112.534174 64.5519899,123.419539 C67.778952,123.276996 77.8952352,121.994634 78.1257832,121.994634 C74.7479354,63.4568261 49.4004782,40.6228968 49.4004782,40.6228968" id="Path-20" stroke="#000000" stroke-width="5" fill="#FFFFFF"></path>
                    <g id="Blood" transform="translate(21.517241, 0.000000)" fill="#000000">
                        <ellipse id="Oval-4" cx="35.7854981" cy="30.0859729" rx="7.9219805" ry="5.24434389"></ellipse>
                        <path d="M12.2016711,32.7081448 C18.1358355,32.7081448 22.9464263,29.6682929 22.9464263,25.9184457 C22.9464263,22.1685984 17.1470304,24.4439088 11.212866,24.4439088 C5.27870155,24.4439088 1.45691595,22.1685984 1.45691595,25.9184457 C1.45691595,29.6682929 6.2675067,32.7081448 12.2016711,32.7081448 Z" id="Oval-4-Copy-7"></path>
                        <ellipse id="Oval-4-Copy-9" transform="translate(3.334591, 20.620512) rotate(-11.000000) translate(-3.334591, -20.620512) " cx="3.33459107" cy="20.6205116" rx="1" ry="9.17760181"></ellipse>
                        <ellipse id="Oval-4-Copy-10" transform="translate(33.858179, 22.442609) rotate(48.000000) translate(-33.858179, -22.442609) " cx="33.8581793" cy="22.442609" rx="2.64066017" ry="9.17760181"></ellipse>
                        <ellipse id="Oval-4-Copy-13" transform="translate(27.863518, 22.442609) rotate(48.000000) translate(-27.863518, -22.442609) " cx="27.8635176" cy="22.442609" rx="2.64066017" ry="9.17760181"></ellipse>
                        <ellipse id="Oval-4-Copy-12" transform="translate(24.709070, 16.659255) rotate(27.000000) translate(-24.709070, -16.659255) " cx="24.7090699" cy="16.6592549" rx="1.64249107" ry="9.17760181"></ellipse>
                        <ellipse id="Oval-4-Copy-14" transform="translate(33.390611, 12.485137) rotate(45.000000) translate(-33.390611, -12.485137) " cx="33.3906114" cy="12.4851367" rx="1.64249107" ry="15.9970444"></ellipse>
                        <path d="M15.9805469,40.5746606 C24.0017267,40.5746606 30.5041778,36.4657083 30.5041778,31.3970588 C30.5041778,26.3284093 24.0017267,19.4417359 15.9805469,19.4417359 C13.5280356,19.4417359 13.0763983,23.5164329 11.0502992,24.1946727 C6.44984167,25.7346831 4.84310249,18.3856201 4.84310249,21.9045075 C4.84310249,26.973157 7.959367,40.5746606 15.9805469,40.5746606 Z" id="Oval-4-Copy-8"></path>
                        <ellipse id="Oval-4-Copy" cx="46.6213105" cy="6.48642534" rx="2.64066017" ry="2.62217195"></ellipse>
                        <ellipse id="Oval-4-Copy-15" cx="35.1480974" cy="14.2149321" rx="2.64066017" ry="2.62217195"></ellipse>
                        <ellipse id="Oval-4-Copy-4" cx="35.7854981" cy="24.841629" rx="2.64066017" ry="2.62217195"></ellipse>
                        <ellipse id="Oval-4-Copy-2" cx="50.309129" cy="23.530543" rx="1.32033008" ry="1.31108597"></ellipse>
                        <ellipse id="Oval-4-Copy-11" cx="51.037587" cy="18.7002262" rx="1.32033008" ry="1.31108597"></ellipse>
                        <ellipse id="Oval-4-Copy-16" cx="47.2131826" cy="12.9038462" rx="1.32033008" ry="1.31108597"></ellipse>
                        <ellipse id="Oval-4-Copy-18" cx="52.9497892" cy="5.17533937" rx="1.32033008" ry="1.31108597"></ellipse>
                        <ellipse id="Oval-4-Copy-6" cx="46.5530176" cy="25.77319" rx="1" ry="1"></ellipse>
                        <ellipse id="Oval-4-Copy-17" cx="56.1140285" cy="0.655542986" rx="1" ry="1"></ellipse>
                        <ellipse id="Oval-4-Copy-5" cx="42.3871485" cy="23.530543" rx="1.32033008" ry="1.31108597"></ellipse>
                        <ellipse id="Oval-4-Copy-3" cx="39.7464883" cy="26.1527149" rx="1.32033008" ry="1.31108597"></ellipse>
                    </g>
                </g>
                <g id="Group-Copy-4" transform="translate(282.206897, 0.828054)" stroke="#000000" fill="#FFFFFF">
                    <path d="M28.725305,40.057358 C28.725305,40.057358 3.37784782,62.8912874 0,121.429095 C0.230548057,121.429095 10.3468312,122.711457 13.5737933,122.854 C17.8573008,111.968635 21.7606983,73.8561025 21.7606983,73.8561025 L15.4879399,182.171946 L35.1961445,182.171946 L38.8154384,114.993786 L42.5158456,182.171946 L62.2240502,182.171946 L55.9512918,73.8561025 C55.9512918,73.8561025 59.8546893,111.968635 64.1381968,122.854 C67.3651589,122.711457 77.4814421,121.429095 77.7119901,121.429095 C74.3341423,62.8912874 48.9866851,40.057358 48.9866851,40.057358 L38.8263237,24.0700027 L28.725305,40.057358 Z" id="Path-20" stroke-width="5"></path>
                    <ellipse id="Oval-7" stroke-width="6" cx="37.5705329" cy="19.8974213" rx="19.8902821" ry="19.8974213"></ellipse>
                </g>
                <polygon id="Line-Copy-3" fill="#000000" fill-rule="nonzero" transform="translate(118.912874, 94.089509) rotate(-270.000000) translate(-118.912874, -94.089509) " points="101.842071 96.5736714 135.983678 96.5736714 135.983678 91.6053457 101.842071 91.6053457"></polygon>
                <polygon id="Line" fill="#000000" fill-rule="nonzero" points="101.922873 96.0542986 136.941034 96.0542986 136.941034 91.0859729 101.922873 91.0859729"></polygon>
                <polygon id="Line-Copy-4" fill="#000000" fill-rule="nonzero" points="220.965517 91.9140271 266.693331 91.9140271 266.693331 86.9457014 220.965517 86.9457014"></polygon>
                <polygon id="Line-Copy-5" fill="#000000" fill-rule="nonzero" points="220.965517 103.506787 266.693331 103.506787 266.693331 98.5384615 220.965517 98.5384615"></polygon>
                <g id="Group" transform="translate(222.620690, 75.352941)" stroke="#000000" stroke-width="7" stroke-linecap="square">
                    <path d="M38.1030539,0.79394662 L0.413793103,38.5045249" id="Line"></path>
                </g>
                <g id="Group-3" transform="translate(147.137931, 73.696833)">
                    <g id="Blood-Copy" transform="translate(25.327586, 44.604072) rotate(-180.000000) translate(-25.327586, -44.604072) translate(0.827586, 27.104072)" fill="#000000">
                        <ellipse id="Oval-4" cx="30.599194" cy="25.7879767" rx="6.77386738" ry="4.49515191"></ellipse>
                        <path d="M10.433313,28.0355527 C15.5074536,28.0355527 19.6208572,25.4299654 19.6208572,22.2158106 C19.6208572,19.0016557 14.6619535,20.9519219 9.58781292,20.9519219 C4.51367234,20.9519219 1.24576871,19.0016557 1.24576871,22.2158106 C1.24576871,25.4299654 5.35917239,28.0355527 10.433313,28.0355527 Z" id="Oval-4-Copy-7"></path>
                        <ellipse id="Oval-4-Copy-9" transform="translate(2.851317, 17.674724) rotate(-11.000000) translate(-2.851317, -17.674724) " cx="2.851317" cy="17.6747242" rx="1" ry="7.86651584"></ellipse>
                        <ellipse id="Oval-4-Copy-10" transform="translate(28.951197, 19.236522) rotate(48.000000) translate(-28.951197, -19.236522) " cx="28.9511968" cy="19.236522" rx="2.25795579" ry="7.86651584"></ellipse>
                        <ellipse id="Oval-4-Copy-13" transform="translate(23.825327, 19.236522) rotate(48.000000) translate(-23.825327, -19.236522) " cx="23.8253266" cy="19.236522" rx="2.25795579" ry="7.86651584"></ellipse>
                        <ellipse id="Oval-4-Copy-12" transform="translate(21.128045, 14.279361) rotate(27.000000) translate(-21.128045, -14.279361) " cx="21.1280453" cy="14.2793613" rx="1.40444889" ry="7.86651584"></ellipse>
                        <ellipse id="Oval-4-Copy-14" transform="translate(28.551392, 10.701546) rotate(45.000000) translate(-28.551392, -10.701546) " cx="28.5513923" cy="10.7015458" rx="1.40444889" ry="13.7117524"></ellipse>
                        <path d="M13.6645256,34.7782805 C20.5232156,34.7782805 26.0832824,31.2563214 26.0832824,26.9117647 C26.0832824,22.567208 20.5232156,16.664345 13.6645256,16.664345 C11.5674507,16.664345 11.1812681,20.1569425 9.44880657,20.7382909 C5.51508201,22.0582998 4.14120358,15.7591029 4.14120358,18.7752922 C4.14120358,23.1198489 6.80583555,34.7782805 13.6645256,34.7782805 Z" id="Oval-4-Copy-8"></path>
                        <ellipse id="Oval-4-Copy" cx="39.8645988" cy="5.55979315" rx="2.25795579" ry="2.24757595"></ellipse>
                        <ellipse id="Oval-4-Copy-15" cx="30.0541702" cy="12.1842275" rx="2.25795579" ry="2.24757595"></ellipse>
                        <ellipse id="Oval-4-Copy-4" cx="30.599194" cy="21.2928248" rx="2.25795579" ry="2.24757595"></ellipse>
                        <ellipse id="Oval-4-Copy-2" cx="43.0179509" cy="20.1690368" rx="1.1289779" ry="1.12378798"></ellipse>
                        <ellipse id="Oval-4-Copy-11" cx="43.6408352" cy="16.0287654" rx="1.1289779" ry="1.12378798"></ellipse>
                        <ellipse id="Oval-4-Copy-16" cx="40.3706924" cy="11.0604396" rx="1.1289779" ry="1.12378798"></ellipse>
                        <ellipse id="Oval-4-Copy-18" cx="45.2759067" cy="4.43600517" rx="1.1289779" ry="1.12378798"></ellipse>
                        <ellipse id="Oval-4-Copy-6" cx="39.8062034" cy="22.0913058" rx="1" ry="1"></ellipse>
                        <ellipse id="Oval-4-Copy-17" cx="47.9815606" cy="0.561893988" rx="1" ry="1"></ellipse>
                        <ellipse id="Oval-4-Copy-5" cx="36.2440835" cy="20.1690368" rx="1.1289779" ry="1.12378798"></ellipse>
                        <ellipse id="Oval-4-Copy-3" cx="33.9861277" cy="22.4166128" rx="1.1289779" ry="1.12378798"></ellipse>
                    </g>
                    <ellipse id="Oval-7" stroke="#000000" stroke-width="6" fill="#FFFFFF" cx="31.6489028" cy="19.8974213" rx="19.8902821" ry="19.8974213"></ellipse>
                    <g id="Group-2" transform="translate(20.862069, 9.936652)" stroke-linecap="square" stroke="#000000" stroke-width="4">
                        <g id="Group" transform="translate(0.000000, 6.305952)">
                            <path d="M9.40834846,0.350330665 L2.43920145,11.5609119" id="Line"></path>
                            <path d="M0.34845735,7.0066133 L10.1052632,7.0066133" id="Line"></path>
                        </g>
                        <g id="Group-Copy" transform="translate(16.725953, 0.000000)">
                            <path d="M7.31760436,1.05099199 L3.14463523,10.544754" id="Line"></path>
                            <path d="M0.34845735,5.60529064 L9.40834846,5.60529064" id="Line"></path>
                        </g>
                    </g>
                </g>
            </g>
        </g>
    </g>
</svg>