<?xml version="1.0" encoding="UTF-8"?>
<svg width="552px" height="320px" viewBox="0 0 552 320" version="1.1" xmlns="http://www.w3.org/2000/svg" xmlns:xlink="http://www.w3.org/1999/xlink">
    <!-- Generator: Sketch 43.2 (39069) - http://www.bohemiancoding.com/sketch -->
    <title>Artboard</title>
    <desc>Created with Sketch.</desc>
    <defs></defs>
    <g id="Page-1" stroke="none" stroke-width="1" fill="none" fill-rule="evenodd">
        <g id="Artboard">
            <g id="Group" transform="translate(100.000000, 63.000000)">
                <g id="Group-39">
                    <ellipse id="Oval-17" fill="#000000" cx="5.08659904" cy="30.4822593" rx="5.08659904" ry="5.12533563"></ellipse>
                    <ellipse id="Oval-17-Copy" fill="#4A4A4A" cx="39.3542136" cy="18.613061" rx="5.08659904" ry="5.12533563"></ellipse>
                    <ellipse id="Oval-17-Copy-2" fill="#4A4A4A" cx="61.3069042" cy="18.613061" rx="5.08659904" ry="5.12533563"></ellipse>
                    <ellipse id="Oval-17-Copy-3" fill="#9B9B9B" cx="61.3069042" cy="30.4822593" rx="5.08659904" ry="5.12533563"></ellipse>
                    <ellipse id="Oval-17-Copy-4" fill="#000000" cx="73.6218282" cy="30.4822593" rx="5.08659904" ry="5.12533563"></ellipse>
                    <ellipse id="Oval-17-Copy-6" fill="#4A4A4A" cx="129.306702" cy="18.613061" rx="5.08659904" ry="5.12533563"></ellipse>
                    <ellipse id="Oval-17-Copy-7" fill="#4A4A4A" cx="142.157057" cy="5.12533563" rx="5.08659904" ry="5.12533563"></ellipse>
                    <ellipse id="Oval-17-Copy-8" fill="#4A4A4A" cx="176.960103" cy="5.12533563" rx="5.08659904" ry="5.12533563"></ellipse>
                    <ellipse id="Oval-17-Copy-11" fill="#4A4A4A" cx="231.574114" cy="5.12533563" rx="5.08659904" ry="5.12533563"></ellipse>
                    <ellipse id="Oval-17-Copy-12" fill="#9B9B9B" cx="245.495333" cy="5.12533563" rx="5.08659904" ry="5.12533563"></ellipse>
                    <ellipse id="Oval-17-Copy-14" fill="#D0011B" cx="245.495333" cy="18.613061" rx="5.08659904" ry="5.12533563"></ellipse>
                    <ellipse id="Oval-17-Copy-15" fill="#4A4A4A" cx="231.574114" cy="30.4822593" rx="5.08659904" ry="5.12533563"></ellipse>
                    <ellipse id="Oval-17-Copy-13" fill="#9B9B9B" cx="266.37716" cy="5.12533563" rx="5.08659904" ry="5.12533563"></ellipse>
                    <ellipse id="Oval-17-Copy-16" fill="#D0011B" cx="279.762947" cy="18.613061" rx="5.08659904" ry="5.12533563"></ellipse>
                    <ellipse id="Oval-17-Copy-18" fill="#4A4A4A" cx="300.109343" cy="5.12533563" rx="5.08659904" ry="5.12533563"></ellipse>
                    <ellipse id="Oval-17-Copy-19" fill="#9B9B9B" cx="312.424267" cy="5.12533563" rx="5.08659904" ry="5.12533563"></ellipse>
                    <ellipse id="Oval-17-Copy-20" fill="#4A4A4A" cx="312.424267" cy="18.613061" rx="5.08659904" ry="5.12533563"></ellipse>
                    <ellipse id="Oval-17-Copy-21" fill="#000000" cx="312.424267" cy="30.4822593" rx="5.08659904" ry="5.12533563"></ellipse>
                    <ellipse id="Oval-17-Copy-22" fill="#4A4A4A" cx="334.376958" cy="30.4822593" rx="5.08659904" ry="5.12533563"></ellipse>
                    <ellipse id="Oval-17-Copy-23" fill="#9B9B9B" cx="346.691882" cy="30.4822593" rx="5.08659904" ry="5.12533563"></ellipse>
                    <ellipse id="Oval-17-Copy-24" fill="#D0011B" cx="346.691882" cy="5.12533563" rx="5.08659904" ry="5.12533563"></ellipse>
                    <ellipse id="Oval-17-Copy-17" fill="#4A4A4A" cx="266.37716" cy="30.4822593" rx="5.08659904" ry="5.12533563"></ellipse>
                    <ellipse id="Oval-17-Copy-9" fill="#D0011B" cx="163.574317" cy="18.613061" rx="5.08659904" ry="5.12533563"></ellipse>
                    <ellipse id="Oval-17-Copy-10" fill="#4A4A4A" cx="163.574317" cy="30.4822593" rx="5.08659904" ry="5.12533563"></ellipse>
                    <ellipse id="Oval-17-Copy-5" fill="#D0011B" cx="73.6218282" cy="5.12533563" rx="5.08659904" ry="5.12533563"></ellipse>
                </g>
                <g id="Group-40" transform="translate(0.000000, 73.670886)">
                    <circle id="Oval-17" fill="#4A4A4A" cx="5.83227848" cy="5.83227848" r="5.83227848"></circle>
                    <circle id="Oval-17-Copy-25" fill="#D0011B" cx="19.9525316" cy="5.83227848" r="5.83227848"></circle>
                    <circle id="Oval-17-Copy-26" fill="#9B9B9B" cx="19.9525316" cy="21.1803797" r="5.83227848"></circle>
                    <circle id="Oval-17-Copy-28" fill="#4A4A4A" cx="45.1234177" cy="5.83227848" r="5.83227848"></circle>
                    <circle id="Oval-17-Copy-29" fill="#000000" cx="59.8575949" cy="21.1803797" r="5.83227848"></circle>
                    <circle id="Oval-17-Copy-30" fill="#4A4A4A" cx="85.028481" cy="21.1803797" r="5.83227848"></circle>
                    <circle id="Oval-17-Copy-31" fill="#9B9B9B" cx="99.1487342" cy="21.1803797" r="5.83227848"></circle>
                    <circle id="Oval-17-Copy-34" fill="#9B9B9B" cx="177.731013" cy="21.1803797" r="5.83227848"></circle>
                    <circle id="Oval-17-Copy-35" fill="#D0011B" cx="202.287975" cy="5.83227848" r="5.83227848"></circle>
                    <circle id="Oval-17-Copy-36" fill="#4A4A4A" cx="202.287975" cy="34.6867089" r="5.83227848"></circle>
                    <circle id="Oval-17-Copy-37" fill="#000000" cx="216.408228" cy="34.6867089" r="5.83227848"></circle>
                    <circle id="Oval-17-Copy-38" fill="#9B9B9B" cx="280.256329" cy="20.5664557" r="5.83227848"></circle>
                    <circle id="Oval-17-Copy-39" fill="#4A4A4A" cx="280.256329" cy="34.6867089" r="5.83227848"></circle>
                    <circle id="Oval-17-Copy-40" fill="#000000" cx="294.376582" cy="34.6867089" r="5.83227848"></circle>
                    <circle id="Oval-17-Copy-41" fill="#D0011B" cx="294.376582" cy="5.83227848" r="5.83227848"></circle>
                    <circle id="Oval-17-Copy-32" fill="#D0011B" cx="99.1487342" cy="5.83227848" r="5.83227848"></circle>
                    <circle id="Oval-17-Copy-33" fill="#4A4A4A" cx="99.1487342" cy="34.6867089" r="5.83227848"></circle>
                    <circle id="Oval-17-Copy-27" fill="#4A4A4A" cx="5.83227848" cy="34.6867089" r="5.83227848"></circle>
                </g>
                <g id="Group-41" transform="translate(0.000000, 152.253165)">
                    <circle id="Oval-17" fill="#D0011B" cx="20.5664557" cy="5.83227848" r="5.83227848"></circle>
                    <circle id="Oval-17-Copy-42" fill="#4A4A4A" cx="5.83227848" cy="21.1803797" r="5.83227848"></circle>
                    <circle id="Oval-17-Copy-43" fill="#000000" cx="5.83227848" cy="35.914557" r="5.83227848"></circle>
                    <circle id="Oval-17-Copy-44" fill="#9B9B9B" cx="45.7373418" cy="5.83227848" r="5.83227848"></circle>
                    <circle id="Oval-17-Copy-45" fill="#4A4A4A" cx="45.7373418" cy="35.914557" r="5.83227848"></circle>
                    <circle id="Oval-17-Copy-46" fill="#000000" cx="59.8575949" cy="35.914557" r="5.83227848"></circle>
                    <circle id="Oval-17-Copy-47" fill="#9B9B9B" cx="85.028481" cy="5.83227848" r="5.83227848"></circle>
                    <circle id="Oval-17-Copy-48" fill="#4A4A4A" cx="99.1487342" cy="5.83227848" r="5.83227848"></circle>
                    <circle id="Oval-17-Copy-49" fill="#D0011B" cx="99.1487342" cy="21.1803797" r="5.83227848"></circle>
                    <circle id="Oval-17-Copy-51" fill="#4A4A4A" cx="123.705696" cy="21.1803797" r="5.83227848"></circle>
                    <circle id="Oval-17-Copy-52" fill="#9B9B9B" cx="137.825949" cy="21.1803797" r="5.83227848"></circle>
                    <circle id="Oval-17-Copy-53" fill="#000000" cx="137.825949" cy="35.914557" r="5.83227848"></circle>
                    <circle id="Oval-17-Copy-50" fill="#4A4A4A" cx="85.028481" cy="35.914557" r="5.83227848"></circle>
                </g>
            </g>
        </g>
    </g>
</svg>