<?xml version="1.0" encoding="UTF-8"?>
<svg width="552px" height="320px" viewBox="0 0 552 320" version="1.1" xmlns="http://www.w3.org/2000/svg" xmlns:xlink="http://www.w3.org/1999/xlink">
    <!-- Generator: Sketch 43.2 (39069) - http://www.bohemiancoding.com/sketch -->
    <title>Artboard</title>
    <desc>Created with Sketch.</desc>
    <defs>
        <rect id="path-1" x="0" y="0" width="247.393643" height="151" rx="7"></rect>
        <path d="M26.2775631,0 L142.969491,3.64436055e-15 C146.838187,3.7651823e-15 149.974385,3.13649688 149.974385,7.00522011 L149.974385,143.99478 C149.974385,147.863656 146.839271,150.991868 142.969491,150.98183 L26.2775631,150.679149 L26.2775631,0 Z" id="path-3"></path>
    </defs>
    <g id="Page-1" stroke="none" stroke-width="1" fill="none" fill-rule="evenodd">
        <g id="Artboard">
            <g id="Group-22" transform="translate(152.000000, 85.000000)">
                <g id="Group-21">
                    <g id="Rectangle-10-Copy">
                        <mask id="mask-2" fill="white">
                            <use xlink:href="#path-1"></use>
                        </mask>
                        <use id="Mask" fill="#4A4A4A" xlink:href="#path-1"></use>
                        <polygon id="Rectangle-10-Copy-2" fill="#000000" mask="url(#mask-2)" points="277.933299 184.641156 -30.5076099 184.641156 123.712844 78.1964286"></polygon>
                        <path d="M13.299016,22.5317544 C-10.8947154,5.83296326 -6.67334757,-7.70408163 22.7127744,-7.70408163 L224.712914,-7.70408163 C254.105721,-7.70408163 258.32291,5.83123402 234.126673,22.5317544 L167.51947,68.5048102 C143.325739,85.2036014 104.102455,85.2053306 79.9062186,68.5048102 L13.299016,22.5317544 Z" fill="#9B9B9B" mask="url(#mask-2)"></path>
                    </g>
                    <g id="Group-20" transform="translate(97.419258, 0.000000)">
                        <g id="Group-19" transform="translate(0.000000, 69.465136)">
                            <path d="M27.1559664,68.0527211 C36.0516481,68.0527211 38.9196508,47.6966555 44.1728058,54.9558812 C48.0901831,60.3692233 53.3339008,33.787585 52.270788,27.576783 C49.4695917,11.2119395 42.8319664,0.0245957111 28.4286859,0.0245957111 C21.6002871,0.0245957111 3.75627177,1.4237413 1.45411464,8.72111254 C-2.63456949,21.6814121 3.61186546,31.8249666 3.61186546,40.5763896 C3.61186546,49.3278126 4.48690356,58.6907425 8.19119169,52.3402371 C11.0624511,47.4178477 21.8573562,68.0527211 27.1559664,68.0527211 Z" id="Oval-12-Copy" fill="#D0011B"></path>
                            <path d="M26.7137286,47.7987366 C39.4745479,47.7987366 49.8192459,37.4365773 49.8192459,24.6541937 C49.8192459,11.8718101 39.4745479,1.50965084 26.7137286,1.50965084 C13.9529092,1.50965084 3.60821128,11.8718101 3.60821128,24.6541937 C3.60821128,37.4365773 13.9529092,47.7987366 26.7137286,47.7987366 Z M26.7137286,44.2034985 C15.9351203,44.2034985 7.19734186,35.4509711 7.19734186,24.6541937 C7.19734186,13.8574163 15.9351203,5.10488893 26.7137286,5.10488893 C37.4923369,5.10488893 46.2301153,13.8574163 46.2301153,24.6541937 C46.2301153,35.4509711 37.4923369,44.2034985 26.7137286,44.2034985 Z" id="Oval-12-Copy-2" fill="#FFFFFF" fill-rule="nonzero" style="mix-blend-mode: overlay;"></path>
                            <ellipse id="Oval-12-Copy-2" fill="#000000" style="mix-blend-mode: overlay;" cx="26.7137286" cy="24.6541937" rx="21.310952" ry="21.3469238"></ellipse>
                        </g>
                        <mask id="mask-4" fill="white">
                            <use xlink:href="#path-3"></use>
                        </mask>
                        <use id="Mask" fill="#4A4A4A" style="mix-blend-mode: overlay;" xlink:href="#path-3"></use>
                    </g>
                </g>
            </g>
        </g>
    </g>
</svg>