<?xml version="1.0" encoding="UTF-8"?>
<svg width="552px" height="320px" viewBox="0 0 552 320" version="1.1" xmlns="http://www.w3.org/2000/svg" xmlns:xlink="http://www.w3.org/1999/xlink">
    <!-- Generator: Sketch 43.2 (39069) - http://www.bohemiancoding.com/sketch -->
    <title>Artboard</title>
    <desc>Created with Sketch.</desc>
    <defs>
        <rect id="path-1" x="0" y="0" width="26.6880384" height="116.660837" rx="4"></rect>
    </defs>
    <g id="Page-1" stroke="none" stroke-width="1" fill="none" fill-rule="evenodd">
        <g id="Artboard">
            <g id="Group" transform="translate(125.000000, -1.000000)">
                <g id="Group-3-Copy" transform="translate(137.246790, 162.586043) rotate(-330.000000) translate(-137.246790, -162.586043) translate(61.746790, 19.586043)">
                    <g id="Group-2" transform="translate(54.710479, 142.110852)">
                        <g id="Rectangle-Copy-3" transform="translate(7.339211, 25.332067)">
                            <mask id="mask-2" fill="white">
                                <use xlink:href="#path-1"></use>
                            </mask>
                            <use id="Mask" fill="#000000" xlink:href="#path-1"></use>
                            <polygon fill="#9B9B9B" mask="url(#mask-2)" points="26.6880384 0 26.6880384 116.660837 0 116.660837"></polygon>
                        </g>
                        <rect id="Rectangle-Copy" fill="#4A4A4A" x="0" y="19.9990006" width="41.3664596" height="11.332767" rx="4"></rect>
                        <rect id="Rectangle-Copy-2" fill="#9B9B9B" x="14.0112202" y="-5.68434189e-14" width="14.0112202" height="19.9990006"></rect>
                    </g>
                    <path d="M75.3937086,150.777086 C117.032504,150.777086 150.787417,117.050889 150.787417,75.4475168 C150.787417,33.8441446 117.032504,0.117947837 75.3937086,0.117947837 C33.7549131,0.117947837 0,33.8441446 0,75.4475168 C0,117.050889 33.7549131,150.777086 75.3937086,150.777086 Z M75.3937086,141.444219 C38.9137019,141.444219 9.34081345,111.896489 9.34081345,75.4475168 C9.34081345,38.9985447 38.9137019,9.45081478 75.3937086,9.45081478 C111.873715,9.45081478 141.446604,38.9985447 141.446604,75.4475168 C141.446604,111.896489 111.873715,141.444219 75.3937086,141.444219 Z" id="Oval" fill="#000000" fill-rule="nonzero"></path>
                    <path d="M75.3937086,142.777485 C112.2422,142.777485 142.113805,112.931294 142.113805,76.1141501 C142.113805,39.2970066 112.2422,9.45081478 75.3937086,9.45081478 C38.545217,9.45081478 8.67361249,39.2970066 8.67361249,76.1141501 C8.67361249,112.931294 38.545217,142.777485 75.3937086,142.777485 Z" id="Oval-Copy-2" fill="#4A4A4A" fill-rule="nonzero"></path>
                </g>
                <g id="Group-Copy" transform="translate(111.183080, 21.561015)">
                    <path d="M117.391057,82.608082 L117.427369,82.608082 C117.418815,82.608082 117.410259,82.6080619 117.401699,82.6080218 C117.410259,82.6079816 117.418815,82.6079615 117.427369,82.6079615 L117.391057,82.6079615 C106.602594,82.5363728 91.147283,50.6124644 58.7136846,50.6841602 C26.2801681,50.7558559 17.3706536,82.5365338 0.0584618961,82.6079615 L2.84217094e-14,82.6079615 C0.0137856304,82.6079615 0.0275659218,82.6079816 0.04134089,82.6080218 C0.0275659235,82.6080619 0.0137856313,82.608082 2.84217094e-14,82.608082 L0.0584618961,82.608082 C17.3706536,82.6795097 26.2801681,114.460188 58.7136846,114.531883 C91.147283,114.603579 106.602594,82.6796707 117.391057,82.608082 Z" id="Combined-Shape" fill="#FFFFFF"></path>
                    <path d="M58.7136846,108.21308 C72.7714906,108.21308 84.1675941,96.7826232 84.1675941,82.6824406 C84.1675941,68.582258 72.7714906,57.1518016 58.7136846,57.1518016 C44.6558785,57.1518016 33.2597751,68.582258 33.2597751,82.6824406 C33.2597751,96.7826232 44.6558785,108.21308 58.7136846,108.21308 Z M58.7136846,97.8234652 C50.3766592,97.8234652 43.6181647,91.0445976 43.6181647,82.6824406 C43.6181647,74.3202836 50.3766592,67.541416 58.7136846,67.541416 C67.05071,67.541416 73.8092044,74.3202836 73.8092044,82.6824406 C73.8092044,91.0445976 67.05071,97.8234652 58.7136846,97.8234652 Z" id="Oval-Copy-3" fill="#D0011B" fill-rule="nonzero"></path>
                    <ellipse id="Oval-3" fill="#000000" cx="58.7136846" cy="82.6824406" rx="15.3456221" ry="15.3325671"></ellipse>
                    <path d="M64.4073548,84.8195895 C64.4073548,84.8195895 69.7664378,77.7686042 69.7664378,74.8113824 C69.7664378,71.8541605 67.3670946,69.4568585 64.4073548,69.4568585 C61.447615,69.4568585 59.0482718,71.8541605 59.0482718,74.8113824 C59.0482718,77.7686042 64.4073548,84.8195895 64.4073548,84.8195895 Z" id="Oval-3-Copy" fill="#FFFFFF" transform="translate(64.407355, 77.138224) rotate(-315.000000) translate(-64.407355, -77.138224) "></path>
                    <path d="M55.5826736,126.252666 C88.5415058,126.252666 115.259918,99.5569835 115.259918,66.6261904 C115.259918,33.6953973 88.5415058,6.99971496 55.5826736,6.99971496" id="Oval-Copy-4" fill="#FFFFFF" fill-rule="nonzero" style="mix-blend-mode: overlay;" transform="translate(85.421296, 66.626190) rotate(-30.000000) translate(-85.421296, -66.626190) "></path>
                </g>
            </g>
        </g>
    </g>
</svg>