<?xml version="1.0" encoding="UTF-8"?>
<svg width="552px" height="320px" viewBox="0 0 552 320" version="1.1" xmlns="http://www.w3.org/2000/svg" xmlns:xlink="http://www.w3.org/1999/xlink">
    <!-- Generator: Sketch 43.2 (39069) - http://www.bohemiancoding.com/sketch -->
    <title>Artboard</title>
    <desc>Created with Sketch.</desc>
    <defs>
        <path d="M6.68756301,121.209699 C11.0994151,123.201874 11.5987639,124.583681 33.7130348,124.218986 C55.8273058,123.854292 58.8703182,128.8191 78.1757269,121.209699 C84.2327319,81.6444373 52.7295911,0 52.7295911,0 L5.99195645,2.76911377 L-3.41060513e-13,29.9097988 L3.0362241,69.4618802 C3.0362241,69.4618802 -4.17413673,116.305091 6.68756301,121.209699 Z" id="path-1"></path>
        <path d="M1.75338246,38.6014282 C26.7557002,44.6127765 20.3257908,125.542919 20.3257908,138.119886 C28.1048027,139.622117 29.0007998,137.772904 29.0007998,137.772904 C29.1888973,36.6426376 54.8433612,38.6014282 54.8433612,38.6014282 C54.8433612,6.18056977 42.7434267,9.97927127 29.0007998,9.13507125 C15.258173,8.29087122 -1.46706664,14.9019395 1.75338246,38.6014282 Z" id="path-3"></path>
        <path d="M23.6662506,9.29768551 C25.4479555,3.59870541 37.6657238,-8.41515998 47.2387635,9.29768551 C51.8535757,37.6864173 55.5200783,27.9978485 65.2182794,56.1024335 C70.526313,89.7651152 77.2727346,114.711658 82.4307984,121.624016 C82.4307984,121.624016 88.7178903,156.672029 81.1508662,165.325358 C71.6897525,168.903822 41.0525123,127.33389 56.7354235,86.5400605 C58.9845252,70.1860378 56.7354235,58.5944566 31.4293147,58.5944566 C8.86486814,58.5944566 5.80304742,61.3635804 6.1615287,81.4966217 C8.83771273,103.200481 10.6987068,125.52259 5.29193094,157.980782 C1.76070105,142.130761 4.66079928,132.452718 4.36925276,110.565361 C4.36925276,84.8320006 -5.46156595,64.5801447 4.36925276,46.9326774 C15.1613487,27.5596054 21.8845457,14.9966656 23.6662506,9.29768551 Z" id="path-5"></path>
        <path d="M29.2447007,118.71833 C29.2447007,118.697007 32.9263998,120.867853 38.8778225,118.71833 C27.0384664,-13.2648159 61.2137999,25.4640424 65.8527996,28.2702811 C41.5411547,2.64571815 3.84694126,-2.50226374 0,0.966390799 C17.9827957,44.7584384 25.9597315,63.060066 29.2447007,118.71833 Z" id="path-7"></path>
        <path d="M25.1916931,1.09279102 C11.892243,23.5044039 -4.49528474,34.8776665 1.14132195,64.3297706 C76.1041653,62.8493217 110.961325,156.541153 116.671071,171.375702 C122.380817,186.21025 151.851815,172.582221 156.261283,165.468804 C156.945067,158.520677 165.833272,141.785786 143.589011,126.06837 C133.821539,175.465612 38.8297563,-16.0757719 25.1916931,1.09279102 Z" id="path-9"></path>
    </defs>
    <g id="Page-1" stroke="none" stroke-width="1" fill="none" fill-rule="evenodd">
        <g id="Artboard">
            <g id="Group-13-Copy" transform="translate(160.000000, 67.000000)">
                <g id="Group-12" transform="translate(0.000000, 2.427655)">
                    <g id="Rectangle-8" transform="translate(3.005737, 44.002147)">
                        <g id="Mask">
                            <mask id="mask-2" fill="white">
                                <use xlink:href="#path-1"></use>
                            </mask>
                            <use fill="#D0011B" xlink:href="#path-1"></use>
                            <path d="M12.8023048,47.5354108 C45.3671665,55.365034 36.9923785,160.774418 36.9923785,177.155586 C47.1243372,179.112203 48.2913498,176.703651 48.2913498,176.703651 C48.5363418,44.9841376 81.9506068,47.5354108 81.9506068,47.5354108 C81.9506068,5.3080948 66.1907602,10.2558037 48.2913498,9.15625532 C30.3919395,8.05670697 8.60775452,16.6674496 12.8023048,47.5354108 Z" fill="#000000" style="mix-blend-mode: overlay;" mask="url(#mask-2)"></path>
                        </g>
                        <mask id="mask-4" fill="white">
                            <use xlink:href="#path-3"></use>
                        </mask>
                        <use id="Mask" fill="#4A4A4A" xlink:href="#path-3"></use>
                        <path d="M22.1331567,9.01907359 C37.0935311,-27.7404839 81.9746544,9.01907359 81.9746544,9.01907359 L81.9746544,156.057304 C81.9746544,156.057304 37.0935311,174.045034 22.1331567,137.285476 C37.0935311,91.6342671 7.17278226,45.7786311 22.1331567,9.01907359 Z" fill="#D8D8D8" style="mix-blend-mode: overlay;" mask="url(#mask-4)"></path>
                    </g>
                    <g id="Rectangle-9">
                        <mask id="mask-6" fill="white">
                            <use xlink:href="#path-5"></use>
                        </mask>
                        <use id="Mask" fill="#29292A" xlink:href="#path-5"></use>
                        <path d="M-23.4994009,-3.27966312 C-23.4994009,-3.27966312 27.2646033,-45.2588848 39.0516227,0.399689599 C10.1938423,44.549558 23.7726498,179.834861 23.7726498,179.834861 L-23.4994009,179.834861 L-23.4994009,-3.27966312 Z" fill="#000000" style="mix-blend-mode: darken;" mask="url(#mask-6)"></path>
                    </g>
                </g>
                <g id="Group-10" transform="translate(73.230691, 0.000000)">
                    <path d="M40.1675806,98.7491754 C40.1675806,98.7491754 71.9635105,113.204734 71.9635105,166.753946 C76.9216874,178.516015 83.9682559,174.521401 97.9398427,174.521401 C111.91143,174.521401 111.960152,181.259138 134.745598,176.957143 C124.999318,141.25927 71.9635105,79.3774287 71.9635105,79.3774287 L44.4858338,79.2585255 L40.1675806,98.7491754 Z" id="Path-7-Copy" fill="#D0011B"></path>
                    <path d="M40.3117915,98.8217388 C101.984346,130.768118 105.93306,189.896654 134.745598,174.770701 C124.999318,139.072828 71.9635105,77.1909866 71.9635105,77.1909866 L44.4858338,77.0720834 C44.4858338,77.0720834 33.5472867,91.4997303 40.3117915,98.8217388 Z" id="Path-7-Copy-2" fill="#000000" style="mix-blend-mode: overlay;"></path>
                    <g id="Path-6-Copy-2" transform="translate(1.092995, 63.406820)">
                        <mask id="mask-8" fill="white">
                            <use xlink:href="#path-7"></use>
                        </mask>
                        <use id="Mask" fill="#4A4A4A" xlink:href="#path-7"></use>
                        <path d="M33.9250684,119.650937 C35.2085684,119.585051 37.2957896,119.465457 38.9699234,118.860797 C27.1305673,-13.1223487 61.3059008,25.6065095 65.9449004,28.4127483 C52.9634505,14.7302524 27.6546259,1.17909884 6.84653353,1.17909884 C-1.98274385,12.0001943 46.5011117,65.8906842 33.9250684,119.650937 Z" fill="#E0E0E0" style="mix-blend-mode: overlay;" mask="url(#mask-8)"></path>
                    </g>
                    <path d="M113.94477,119.366654 C113.94477,119.366654 131.8298,116.049173 143.828391,126.297931 C155.826983,136.546689 132.595775,138.919063 132.595775,138.919063 L113.94477,119.366654 Z" id="Path-8" fill="#000000"></path>
                    <g id="Path-6">
                        <mask id="mask-10" fill="white">
                            <use xlink:href="#path-9"></use>
                        </mask>
                        <use id="Mask" fill="#292929" xlink:href="#path-9"></use>
                        <path d="M8.43772463,64.5681182 C14.1373962,43.2346311 5.06064358,40.0564383 27.8194299,0.191935585 C25.2233582,-12.1002159 -2.96487098,10.5779185 -2.96487098,10.5779185 L-6.2974612,64.4230986 C-6.2974612,64.4230986 3.81175675,73.6889612 8.43772463,64.5681182 Z" fill="#000000" mask="url(#mask-10)"></path>
                    </g>
                </g>
            </g>
        </g>
    </g>
</svg>