<?xml version="1.0" encoding="UTF-8"?>
<svg width="552px" height="320px" viewBox="0 0 552 320" version="1.1" xmlns="http://www.w3.org/2000/svg" xmlns:xlink="http://www.w3.org/1999/xlink">
    <!-- Generator: Sketch 43.2 (39069) - http://www.bohemiancoding.com/sketch -->
    <title>Artboard</title>
    <desc>Created with Sketch.</desc>
    <defs></defs>
    <g id="Page-1" stroke="none" stroke-width="1" fill="none" fill-rule="evenodd">
        <g id="Artboard">
            <g id="Group-25" transform="translate(205.000000, 53.000000)">
                <g id="Group-24">
                    <g id="Group-23" transform="translate(18.725275, 0.000000)">
                        <path d="M0.142638597,15.9759126 C0.134819754,14.3227836 1.32756517,12.3910843 2.83271612,11.6843837 L48.1468164,0.0564630907 C49.8003349,0.0252793868 52.4883657,0.0115673463 54.1386325,0.0564630907 L100.335208,11.7201144 C101.833931,12.4173978 103.055221,14.3218698 103.063044,15.9759126 L103.162458,36.995005 C103.170277,38.6481341 101.837679,39.9882599 100.179831,39.9882599 L3.25299508,39.9882599 C1.59791658,39.9882599 0.249876257,38.6490479 0.242053092,36.995005 L0.142638597,15.9759126 Z" id="Rectangle-5-Copy-4" fill="#4A4A4A"></path>
                        <path d="M12.7803623,18.0060195 L48.504359,8.82297392 C50.3179617,8.78436005 52.641322,8.7799229 54.0771723,8.82140438 L90.5441469,18.0498252 C91.4666993,18.5435263 92.2853608,19.8607035 92.2902563,20.8957594 L92.3663841,36.9913628 C92.370307,37.8207885 91.7076257,38.4882599 90.8824843,38.4882599 L12.6402155,38.4882599 C11.8126177,38.4882599 11.1318323,37.8086572 11.1278996,36.9771738 L11.0517718,20.8815704 C11.0468318,19.8370989 11.8596192,18.5016936 12.7803623,18.0060195 Z" id="Rectangle-5-Copy-8" stroke="#D0011B" stroke-width="3"></path>
                    </g>
                    <path d="M13.1907341,47.2665708 C13.2086614,43.9567069 15.6455962,40.0993037 18.6639266,38.7381589 L64.7928827,26.8180522 C68.0919076,26.7097828 73.4527877,26.6624342 76.7532292,26.8180522 L123.861044,38.8046694 C126.875886,40.1681846 129.305392,43.951637 129.287437,47.2665708 L128.428887,205.777764 C128.410959,209.087628 125.71158,211.770803 122.399034,211.770803 L18.2971151,211.770803 C14.9848469,211.770803 12.3142285,209.092698 12.3321833,205.777764 L13.1907341,47.2665708 Z" id="Rectangle-5" fill="#000000"></path>
                    <rect id="Rectangle-5-Copy-2" fill="#4A4A4A" x="23.4065934" y="43.9029689" width="93.7824176" height="150.079652" rx="7"></rect>
                    <rect id="Rectangle-5-Copy-5" fill="#9B9B9B" x="56.8" y="200.365677" width="27.5417582" height="14.634323" rx="7.31716148"></rect>
                    <path d="M139.348332,87.1832006 C140.812808,87.1832006 142,88.3680382 142,89.8297619 L142,123.76908 C142,125.230735 140.811651,126.415641 139.348332,126.415641 L134.508811,126.415641 C133.044335,126.415641 131.857143,125.230803 131.857143,123.76908 L131.857143,89.8297619 C131.857143,88.3681064 133.045492,87.1832006 134.508811,87.1832006 L139.348332,87.1832006 Z" id="Rectangle-5-Copy-6" fill="#4A4A4A"></path>
                    <path d="M7.49118932,106.799421 C8.95566502,106.799421 10.1428571,107.983035 10.1428571,109.447246 L10.1428571,160.820676 C10.1428571,162.283029 8.95450832,163.468501 7.49118932,163.468501 L2.65166782,163.468501 C1.18719212,163.468501 -3.06392274e-14,162.284887 -2.84217094e-14,160.820676 L-1.95516375e-14,109.447246 C-1.95516375e-14,107.984892 1.18834882,106.799421 2.65166782,106.799421 L7.49118932,106.799421 Z" id="Rectangle-5-Copy-7" fill="#4A4A4A"></path>
                    <path d="M39.5190484,91.2308291 C43.1295839,66.4250955 66.3716616,46.3160753 91.4325453,46.3160753 L49.1630591,46.3160753 C74.2235562,46.3160753 97.4649263,66.417578 101.076556,91.2308291 L109.143646,146.654761 C112.754181,171.460495 95.3678157,191.569515 70.2978022,191.569515 L70.2978022,191.569515 C45.2332997,191.569515 27.8403289,171.468012 31.4519587,146.654761 L39.5190484,91.2308291 Z" id="Rectangle-5-Copy-3" fill="#FFFFFF"></path>
                    <path d="M29.9366895,176.565088 C28.9442632,183.383429 33.6127176,188.767198 40.5178393,188.767198 L100.077765,188.767198 C106.983394,188.767198 111.651443,183.384129 110.658915,176.565088 L93.2619422,57.0413604 C92.6327558,52.718614 88.4626544,49.1183925 84.0843803,49.1183925 L56.511224,49.1183925 C52.1332016,49.1183925 47.9628807,52.7183935 47.3336622,57.0413604 L29.9366895,176.565088 Z M44.5540266,56.6386405 C45.3838205,50.9376452 50.7382401,46.3160753 56.511224,46.3160753 L84.0843803,46.3160753 C89.8583643,46.3160753 95.2119236,50.9386047 96.0415778,56.6386405 L113.438551,176.162368 C114.677076,184.6715 108.695439,191.569515 100.077765,191.569515 L40.5178393,191.569515 C31.9003561,191.569515 25.9186762,184.670487 27.1570539,176.162368 L44.5540266,56.6386405 Z" id="Rectangle-5-Copy-3" fill="#D0011B" fill-rule="nonzero"></path>
                    <path d="M127.135799,192.372093 C128.214475,194.998071 127.016845,198.134746 124.429713,199.313904 C124.429713,199.313904 100.7791,211.748665 71.5458142,211.748665 C42.3125283,211.748665 17.6745653,199.258851 17.6745653,199.258851 C15.088573,198.081377 13.8664351,194.998719 14.9454388,192.372093 L69.0889742,60.5701066 C70.1677115,57.9441289 71.9163744,57.9434803 72.9953173,60.5701066 L127.135799,192.372093 Z" id="Rectangle-5-Copy-9" fill="#000000" opacity="0.16248834"></path>
                    <path d="M70.3758242,99.7157857 C56.4576416,99.7157857 45.1747253,88.4588756 45.1747253,74.5727734 C45.1747253,60.6866711 56.4576416,49.429761 70.3758242,49.429761 C84.2940068,49.429761 95.5769231,60.6866711 95.5769231,74.5727734 C95.5769231,88.4588756 84.2940068,99.7157857 70.3758242,99.7157857 Z M70.3758242,90.8417813 C79.381707,90.8417813 86.6824176,83.5578983 86.6824176,74.5727734 C86.6824176,65.5876484 79.381707,58.3037654 70.3758242,58.3037654 C61.3699413,58.3037654 54.0692308,65.5876484 54.0692308,74.5727734 C54.0692308,83.5578983 61.3699413,90.8417813 70.3758242,90.8417813 Z" id="Oval-12" fill="#979797" fill-rule="nonzero"></path>
                    <ellipse id="Oval-4" fill="#000000" cx="70.4538462" cy="74.6506155" rx="16.7747253" ry="16.7360608"></ellipse>
                    <ellipse id="Oval-4-Copy" fill="#000000" cx="71.156044" cy="150.079652" rx="26.9956044" ry="26.9333816"></ellipse>
                    <ellipse id="Oval-12-Copy-4" fill="#9B9B9B" cx="102.598901" cy="106.721579" rx="11.4692308" ry="11.4427951"></ellipse>
                    <ellipse id="Oval-12-Copy-6" fill="#FFFFFF" cx="79.1923077" cy="67.1777697" rx="4.13516484" ry="4.1256336"></ellipse>
                    <ellipse id="Oval-12-Copy-5" fill="#9B9B9B" cx="39.4010989" cy="106.721579" rx="11.4692308" ry="11.4427951"></ellipse>
                    <path d="M70.3758242,185.419986 C50.7266252,185.419986 34.7978022,169.527877 34.7978022,149.923968 C34.7978022,130.320059 50.7266252,114.427951 70.3758242,114.427951 C90.0250231,114.427951 105.953846,130.320059 105.953846,149.923968 C105.953846,169.527877 90.0250231,185.419986 70.3758242,185.419986 Z M70.3758242,176.390297 C85.0265427,176.390297 96.9032967,164.540918 96.9032967,149.923968 C96.9032967,135.307018 85.0265427,123.457639 70.3758242,123.457639 C55.7251056,123.457639 43.8483516,135.307018 43.8483516,149.923968 C43.8483516,164.540918 55.7251056,176.390297 70.3758242,176.390297 Z" id="Oval-12-Copy-3" fill="#979797" fill-rule="nonzero"></path>
                    <ellipse id="Oval-12-Copy-7" fill="#FFFFFF" cx="83.7956044" cy="137.780594" rx="7.33406593" ry="7.31716148"></ellipse>
                </g>
            </g>
        </g>
    </g>
</svg>