<?xml version="1.0" encoding="UTF-8"?>
<svg width="552px" height="320px" viewBox="0 0 552 320" version="1.1" xmlns="http://www.w3.org/2000/svg" xmlns:xlink="http://www.w3.org/1999/xlink">
    <!-- Generator: Sketch 43.2 (39069) - http://www.bohemiancoding.com/sketch -->
    <title>Artboard</title>
    <desc>Created with Sketch.</desc>
    <defs>
        <rect id="path-1" x="0" y="0" width="77.9963257" height="228"></rect>
        <rect id="path-3" x="11.9476953" y="11.5828884" width="22.9277587" height="22.9618327"></rect>
        <rect id="path-4" x="16.4030837" y="16.0448982" width="31.760088" height="31.807288"></rect>
        <rect id="path-5" x="14.4195204" y="14.058387" width="27.8278866" height="27.8692428"></rect>
        <rect id="path-6" x="14.4195204" y="14.058387" width="27.8278866" height="27.8692428"></rect>
    </defs>
    <g id="Page-1" stroke="none" stroke-width="1" fill="none" fill-rule="evenodd">
        <g id="Artboard">
            <g id="Group-28" transform="translate(197.000000, 46.000000)">
                <g id="Group-27">
                    <rect id="Rectangle-11" fill="#4A4A4A" x="28.3681963" y="69.7039017" width="100.263607" height="29.4901122"></rect>
                    <polygon id="Rectangle-11-Copy" fill="#4A4A4A" points="93.3448545 23.0315339 93.3448545 206.430786 63.8985038 206.430786 63.8985038 23.0315339"></polygon>
                    <path d="M40.7794681,94.5531308 L69.5400446,94.5531308 L69.5400446,181.357654 L88.5086996,181.357654 L88.5086996,94.5531308 L117.072286,94.5531308 L117.072286,75.5562858 L88.5086996,75.5562858 L88.5086996,37.7765901 L69.5400446,37.7765901 L69.5400446,75.5562858 L40.7794681,75.5562858 L40.7794681,94.5531308 Z M67.1064619,35.3393907 L90.9422823,35.3393907 L90.9422823,73.1190864 L119.505869,73.1190864 L119.505869,96.9903302 L90.9422823,96.9903302 L90.9422823,183.794853 L67.1064619,183.794853 L67.1064619,96.9903302 L38.3458853,96.9903302 L38.3458853,73.1190864 L67.1064619,73.1190864 L67.1064619,35.3393907 Z" id="Combined-Shape" fill="#D0011B" fill-rule="nonzero"></path>
                    <g id="Group-26" transform="translate(55.502643, 0.000000)">
                        <polygon id="Rectangle-10" fill="#9B9B9B" points="23.0391184 2.84217094e-14 46.0782368 23.0733578 23.0391184 46.1467156 -1.16529009e-12 23.0733578"></polygon>
                        <polygon id="Rectangle-10-Copy-3" fill="#000000" points="23.0295795 6.82733716 39.2419532 23.0638048 23.0295795 39.3002723 6.81720582 23.0638048"></polygon>
                        <path d="M9.57049035,23.0638048 L23.0295795,36.542896 L36.4886686,23.0638048 L23.0295795,9.58471347 L9.57049035,23.0638048 Z M23.0295795,6.82733716 L39.2419532,23.0638048 L23.0295795,39.3002723 L6.81720582,23.0638048 L23.0295795,6.82733716 Z" id="Rectangle-10-Copy-3" fill="#D0011B" fill-rule="nonzero"></path>
                    </g>
                    <g id="Group-26-Copy-3" transform="translate(47.471820, 161.098878)">
                        <polygon id="Rectangle-10" fill="#9B9B9B" points="31.914346 0 63.8286921 31.9617753 31.914346 63.9235507 -1.13686838e-12 31.9617753"></polygon>
                        <polygon id="Rectangle-10-Copy-3" fill="#000000" points="31.9011326 9.45739316 54.3589061 31.9485422 31.9011326 54.4396912 9.44335898 31.9485422"></polygon>
                        <path d="M12.1966435,31.9485422 L31.9011326,51.6823149 L51.6056216,31.9485422 L31.9011326,12.2147695 L12.1966435,31.9485422 Z M31.9011326,9.45739316 L54.3589061,31.9485422 L31.9011326,54.4396912 L9.44335898,31.9485422 L31.9011326,9.45739316 Z" id="Rectangle-10-Copy-3" fill="#D0011B" fill-rule="nonzero"></path>
                    </g>
                    <g id="Group-26-Copy" transform="translate(100.263607, 56.299305)">
                        <rect id="Rectangle-10" fill="#4A4A4A" transform="translate(28.345041, 28.004603) rotate(-315.000000) translate(-28.345041, -28.004603) " x="8.5721817" y="8.20235836" width="39.545719" height="39.6044896"></rect>
                        <rect id="Rectangle-10-Copy-3" fill="#000000" transform="translate(28.333464, 27.993008) rotate(-315.000000) translate(-28.333464, -27.993008) " x="14.4195204" y="14.058387" width="27.8278866" height="27.8692428"></rect>
                        <path d="M11.4094609,27.9930084 L28.3334637,44.9421627 L45.2574664,27.9930084 L28.3334637,11.0438541 L11.4094609,27.9930084 Z M28.3334637,8.28647782 L48.010751,27.9930084 L28.3334637,47.699539 L8.65617633,27.9930084 L28.3334637,8.28647782 Z" id="Rectangle-10-Copy-3" fill="#D0011B" fill-rule="nonzero"></path>
                    </g>
                    <g id="Group-26-Copy-2" transform="translate(0.000000, 56.299305)">
                        <rect id="Rectangle-10" fill="#9B9B9B" transform="translate(28.345041, 28.004603) rotate(-315.000000) translate(-28.345041, -28.004603) " x="8.5721817" y="8.20235836" width="39.545719" height="39.6044896"></rect>
                        <rect id="Rectangle-10-Copy-3" fill="#000000" transform="translate(28.333464, 27.993008) rotate(-315.000000) translate(-28.333464, -27.993008) " x="14.4195204" y="14.058387" width="27.8278866" height="27.8692428"></rect>
                        <path d="M11.4094609,27.9930084 L28.3334637,44.9421627 L45.2574664,27.9930084 L28.3334637,11.0438541 L11.4094609,27.9930084 Z M28.3334637,8.28647782 L48.010751,27.9930084 L28.3334637,47.699539 L8.65617633,27.9930084 L28.3334637,8.28647782 Z" id="Rectangle-10-Copy-3" fill="#D0011B" fill-rule="nonzero"></path>
                    </g>
                </g>
                <g id="Group-27-Copy" style="mix-blend-mode: darken;" transform="translate(78.500000, 0.000000)">
                    <mask id="mask-2" fill="white">
                        <use xlink:href="#path-1"></use>
                    </mask>
                    <g id="Mask" style="mix-blend-mode: hard-light;"></g>
                    <g mask="url(#mask-2)">
                        <g transform="translate(-78.621679, 0.000000)">
                            <rect id="Rectangle-11" stroke="none" fill="#000000" fill-rule="evenodd" x="28.3681963" y="69.7039017" width="100.263607" height="29.4901122"></rect>
                            <rect id="Rectangle-11-Copy" stroke="none" fill="#000000" fill-rule="evenodd" transform="translate(78.621679, 114.731160) rotate(-270.000000) translate(-78.621679, -114.731160) " x="-12.9418702" y="99.9861037" width="183.127099" height="29.4901122"></rect>
                            <path d="M77.0887502,45.44954 L80.959994,45.44954 L80.959994,73.1190864 L80.959994,83.1190864 L90.959994,83.1190864 L109.505869,83.1190864 L109.505869,86.9903302 L90.959994,86.9903302 L80.959994,86.9903302 L80.959994,96.9903302 L80.959994,173.684704 L77.0887502,173.684704 L77.0887502,96.9903302 L77.0887502,86.9903302 L67.0887502,86.9903302 L48.3458853,86.9903302 L48.3458853,83.1190864 L67.0887502,83.1190864 L77.0887502,83.1190864 L77.0887502,73.1190864 L77.0887502,45.44954 Z" id="Combined-Shape" stroke="#D0011B" stroke-width="20" fill="none"></path>
                            <g id="Group-26" stroke="none" stroke-width="1" fill="none" fill-rule="evenodd" transform="translate(55.120648, 0.000000)">
                                <rect id="Rectangle-10" fill="#4A4A4A" transform="translate(23.421114, 23.073358) rotate(-315.000000) translate(-23.421114, -23.073358) " x="7.12999667" y="6.75803004" width="32.5822337" height="32.6306555"></rect>
                                <g id="Rectangle-10-Copy-3" transform="translate(23.411575, 23.063805) rotate(-315.000000) translate(-23.411575, -23.063805) ">
                                    <use fill="#000000" fill-rule="evenodd" xlink:href="#path-3"></use>
                                    <rect stroke="#D0011B" stroke-width="16" x="19.9476953" y="19.5828884" width="6.92775874" height="6.96183267"></rect>
                                </g>
                            </g>
                            <g id="Group-26-Copy-3" stroke="none" stroke-width="1" fill="none" fill-rule="evenodd" transform="translate(47.089825, 161.098878)">
                                <rect id="Rectangle-10" fill="#4A4A4A" transform="translate(32.296341, 31.961775) rotate(-315.000000) translate(-32.296341, -31.961775) " x="9.72949067" y="9.36138726" width="45.133701" height="45.2007761"></rect>
                                <g id="Rectangle-10-Copy-3" transform="translate(32.283128, 31.948542) rotate(-315.000000) translate(-32.283128, -31.948542) ">
                                    <use fill="#000000" fill-rule="evenodd" xlink:href="#path-4"></use>
                                    <rect stroke="#D0011B" stroke-width="16" x="24.4030837" y="24.0448982" width="15.760088" height="15.807288"></rect>
                                </g>
                            </g>
                            <g id="Group-26-Copy" stroke="none" stroke-width="1" fill="none" fill-rule="evenodd" transform="translate(100.263607, 56.299305)">
                                <rect id="Rectangle-10" fill="#4A4A4A" transform="translate(28.345041, 28.004603) rotate(-315.000000) translate(-28.345041, -28.004603) " x="8.5721817" y="8.20235836" width="39.545719" height="39.6044896"></rect>
                                <g id="Rectangle-10-Copy-3" transform="translate(28.333464, 27.993008) rotate(-315.000000) translate(-28.333464, -27.993008) ">
                                    <use fill="#000000" fill-rule="evenodd" xlink:href="#path-5"></use>
                                    <rect stroke="#D0011B" stroke-width="16" x="22.4195204" y="22.058387" width="11.8278866" height="11.8692428"></rect>
                                </g>
                            </g>
                            <g id="Group-26-Copy-2" stroke="none" stroke-width="1" fill="none" fill-rule="evenodd" transform="translate(0.000000, 56.299305)">
                                <rect id="Rectangle-10" fill="#4A4A4A" transform="translate(28.345041, 28.004603) rotate(-315.000000) translate(-28.345041, -28.004603) " x="8.5721817" y="8.20235836" width="39.545719" height="39.6044896"></rect>
                                <g id="Rectangle-10-Copy-3" transform="translate(28.333464, 27.993008) rotate(-315.000000) translate(-28.333464, -27.993008) ">
                                    <use fill="#000000" fill-rule="evenodd" xlink:href="#path-6"></use>
                                    <rect stroke="#D0011B" stroke-width="16" x="22.4195204" y="22.058387" width="11.8278866" height="11.8692428"></rect>
                                </g>
                            </g>
                        </g>
                    </g>
                </g>
            </g>
        </g>
    </g>
</svg>