<?xml version="1.0" encoding="UTF-8"?>
<svg width="552px" height="320px" viewBox="0 0 552 320" version="1.1" xmlns="http://www.w3.org/2000/svg" xmlns:xlink="http://www.w3.org/1999/xlink">
    <!-- Generator: Sketch 43.2 (39069) - http://www.bohemiancoding.com/sketch -->
    <title>Artboard</title>
    <desc>Created with Sketch.</desc>
    <defs>
        <ellipse id="path-1" cx="60.3914328" cy="60.1928429" rx="60.3914328" ry="60.1928429"></ellipse>
        <ellipse id="path-3" cx="14.0731167" cy="14.026839" rx="14.0731167" ry="14.026839"></ellipse>
    </defs>
    <g id="Page-1" stroke="none" stroke-width="1" fill="none" fill-rule="evenodd">
        <g id="Artboard">
            <g id="Group-34" transform="translate(176.000000, 46.000000)">
                <ellipse id="Oval-15" stroke="#000000" stroke-width="19" fill="#D8D8D8" cx="69.4091581" cy="69.1809145" rx="69.4091581" ry="69.1809145"></ellipse>
                <g id="Rectangle-17" transform="translate(9.290990, 9.260437)">
                    <mask id="mask-2" fill="white">
                        <use xlink:href="#path-1"></use>
                    </mask>
                    <use id="Mask" fill="#4A4A4A" xlink:href="#path-1"></use>
                    <polygon fill="#FFFFFF" mask="url(#mask-2)" points="90.2738877 -8.71570577 104.387001 19.0656908 60.4743056 149.97293 38.5302806 149.97293"></polygon>
                    <polygon id="Rectangle-17-Copy" fill="#FFFFFF" style="mix-blend-mode: soft-light;" mask="url(#mask-2)" points="111.842515 26.9642147 122.149188 47.2527035 90.0801649 142.853011 74.0546529 142.853011"></polygon>
                </g>
                <g id="Group-32" transform="translate(159.500000, 175.000000) rotate(-180.000000) translate(-159.500000, -175.000000) translate(134.000000, 76.000000)">
                    <path d="M44.6298194,158.709831 L50.0888675,158.484415 C47.6818334,115.032537 44.8036895,91.2860994 41.2492279,83.7918833 C40.7466159,82.7321777 40.1991739,81.9039013 39.5447767,81.2828834 C38.6072346,80.3931632 37.3968331,79.8910794 36.0224773,80.0161545 C34.8062761,80.1268365 33.8212125,80.688097 32.9912312,81.536912 C32.4053708,82.1360665 31.8742977,82.9065844 31.3595381,83.8616224 C29.6652745,87.005004 27.9617575,92.546089 26.1127454,100.551727 C24.0168197,109.626422 21.9855468,120.53308 18.9093402,138.522709 C18.5530729,140.606157 16.8657236,150.529658 16.4056372,153.214816 C15.4564862,158.754254 14.7022069,163.06054 13.9895599,166.97609 C12.2350185,176.616197 10.8086709,183.420605 9.53446634,187.979646 C9.39847257,188.466225 9.26471248,188.924613 9.13354668,189.3541 C8.69494651,186.983363 8.28547851,183.785201 7.90844587,179.735401 C6.22467347,161.649588 5.49222651,135.949067 5.54804366,104.617539 C5.58793206,82.2272104 6.02559197,58.2386352 6.73030288,34.1842939 C6.98958199,25.3341569 7.26737659,17.0986185 7.54515648,9.69453889 C7.64236532,7.10348756 7.73262249,4.80158238 7.81361156,2.81592602 C7.84194776,2.12119076 7.86709838,1.51567804 7.88877383,1.00277551 C7.91416474,0.407993645 7.91416474,0.407993645 7.9152933,0.382134472 L2.45388033,0.204477957 C2.44138523,0.494474594 2.43474122,0.650387314 2.42712001,0.830726623 C2.40536087,1.34560952 2.38012734,1.95311854 2.35170899,2.64986774 C2.27054221,4.63988125 2.18011144,6.94621369 2.08273325,9.54177899 C1.80455023,16.956604 1.52638191,25.2032214 1.26676229,34.0649814 C0.56103861,58.1538924 0.122724668,82.1783156 0.0827620942,104.610281 C0.0267339045,136.060268 0.762299621,161.870221 2.46072775,180.113455 C3.39693697,190.169509 4.43474723,195.135757 6.35169831,196.812541 C7.53980653,197.851796 9.28775921,198.051941 10.7207644,197.226172 C11.525546,196.762416 12.0910361,196.081468 12.6144302,195.152442 C13.3545474,193.838731 14.078314,191.837762 14.847268,189.086483 C16.1656546,184.36936 17.6124197,177.467551 19.3885977,167.708564 C20.1042291,163.776617 20.8607436,159.457569 21.8120871,153.905336 C22.2727293,151.216934 23.9602349,141.292514 24.3160233,139.211866 C27.3790088,121.299554 29.4002959,110.446514 31.4725113,101.474476 C33.2384479,93.8285291 34.8621016,88.5472185 36.3145846,85.8524144 C39.4720501,92.9544448 42.2929392,116.524373 44.6298194,158.709831 Z" id="Path-7" fill="#D0011B" fill-rule="nonzero"></path>
                    <ellipse id="Oval-16" fill="#D0021B" cx="47.4113737" cy="141.617166" rx="2.86927622" ry="2.21112304"></ellipse>
                </g>
                <g id="Group-33" transform="translate(135.009657, 127.336882) rotate(-315.000000) translate(-135.009657, -127.336882) translate(116.509657, 112.836882)">
                    <rect id="Rectangle-16" fill="#000000" x="0" y="3.54075547" width="18.8552437" height="20.1550696"></rect>
                    <g id="Rectangle-17-Copy" transform="translate(7.104874, 0.000000)">
                        <mask id="mask-4" fill="white">
                            <use xlink:href="#path-3"></use>
                        </mask>
                        <use id="Mask" fill="#4A4A4A" xlink:href="#path-3"></use>
                        <polygon fill="#FFFFFF" style="mix-blend-mode: soft-light;" mask="url(#mask-4)" points="24.6371495 -21.2445328 29.4936258 -11.6846513 14.3827883 33.3619572 6.83161004 33.3619572"></polygon>
                    </g>
                </g>
                <g id="Group-Copy" transform="translate(21.314623, 43.033797)">
                    <path d="M96.4623347,26.2710008 L96.4921732,26.2710008 C96.4851444,26.2710008 96.4781132,26.2709843 96.4710795,26.2709514 C96.4781132,26.2709184 96.4851444,26.270902 96.4921732,26.270902 L96.4623347,26.270902 C87.5972617,26.2122583 74.8973556,0.0609413031 48.2460866,0.119672826 C21.594885,0.1784042 14.2737773,26.2123901 0.0480391876,26.270902 L2.84217094e-14,26.270902 C0.0113278995,26.270902 0.0226514118,26.2709184 0.0339705501,26.2709514 C0.0226514086,26.2709843 0.0113278979,26.2710008 2.84217094e-14,26.2710008 L0.0480391876,26.2710008 C14.2737773,26.3295126 21.594885,52.3634985 48.2460866,52.4222299 C74.8973556,52.4809614 87.5972617,26.3296445 96.4623347,26.2710008 Z" id="Combined-Shape" fill="#FFFFFF"></path>
                    <path d="M48.2460866,47.2460142 C59.7976377,47.2460142 69.1620201,37.8824524 69.1620201,26.3319136 C69.1620201,14.7813747 59.7976377,5.41781288 48.2460866,5.41781288 C36.6945355,5.41781288 27.3301531,14.7813747 27.3301531,26.3319136 C27.3301531,37.8824524 36.6945355,47.2460142 48.2460866,47.2460142 Z M48.2460866,38.7350857 C41.3954035,38.7350857 35.8418275,33.1819964 35.8418275,26.3319136 C35.8418275,19.4818307 41.3954035,13.9287414 48.2460866,13.9287414 C55.0967698,13.9287414 60.6503458,19.4818307 60.6503458,26.3319136 C60.6503458,33.1819964 55.0967698,38.7350857 48.2460866,38.7350857 Z" id="Oval-Copy-3" fill="#D0011B" fill-rule="nonzero"></path>
                    <ellipse id="Oval-3" fill="#000000" cx="48.2460866" cy="26.3319136" rx="12.6097726" ry="12.5600793"></ellipse>
                    <path d="M52.9246775,28.0826158 C52.9246775,28.0826158 57.328332,22.3066141 57.328332,19.8841273 C57.328332,17.4616405 55.3567487,15.4978269 52.9246775,15.4978269 C50.4926062,15.4978269 48.521023,17.4616405 48.521023,19.8841273 C48.521023,22.3066141 52.9246775,28.0826158 52.9246775,28.0826158 Z" id="Oval-3-Copy" fill="#FFFFFF" transform="translate(52.924677, 21.790221) rotate(-315.000000) translate(-52.924677, -21.790221) "></path>
                </g>
            </g>
        </g>
    </g>
</svg>