<?xml version="1.0" encoding="UTF-8"?>
<svg width="552px" height="320px" viewBox="0 0 552 320" version="1.1" xmlns="http://www.w3.org/2000/svg" xmlns:xlink="http://www.w3.org/1999/xlink">
    <!-- Generator: Sketch 43.2 (39069) - http://www.bohemiancoding.com/sketch -->
    <title>Artboard</title>
    <desc>Created with Sketch.</desc>
    <defs></defs>
    <g id="Page-1" stroke="none" stroke-width="1" fill="none" fill-rule="evenodd">
        <g id="Artboard">
            <g id="Group" transform="translate(161.000000, 10.000000)">
                <path d="M154.007849,135.037816 C154.007849,135.037816 134.509113,155.9378 139.470457,175.399118 C144.4318,194.860436 162.835983,186.840442 157.1438,226.372411" id="Path-2" stroke="#D0011B" stroke-width="3"></path>
                <path d="M122.97963,150.205684 C122.97963,150.205684 152.393606,121.600744 149.762635,101.879498" id="Path-3" stroke="#D0011B" stroke-width="3"></path>
                <path d="M96.955468,101.751294 C96.955468,101.751294 127.969613,123.117264 93.1070907,131.206061 C58.2445687,139.294858 78.3157202,183.214885 78.3157202,183.214885" id="Path-2-Copy" stroke="#D0011B" stroke-width="3" transform="translate(91.116473, 142.483089) rotate(-321.000000) translate(-91.116473, -142.483089) "></path>
                <ellipse id="Oval-10" fill="#9B9B9B" cx="149.07438" cy="144.194561" rx="9.26446281" ry="9.25732218"></ellipse>
                <ellipse id="Oval-10-Copy-2" fill="#9B9B9B" cx="131.173554" cy="141.997908" rx="5.18181818" ry="5.17782427"></ellipse>
                <ellipse id="Oval-10-Copy" fill="#9B9B9B" cx="114.214876" cy="135.094142" rx="9.26446281" ry="9.25732218"></ellipse>
                <g id="Group-6" transform="translate(149.903714, 253.930026) rotate(12.000000) translate(-149.903714, -253.930026) translate(135.403714, 209.430026)">
                    <path d="M57.8715102,44.7661696 L57.8984047,44.7661696 C57.8920694,44.7661696 57.8857319,44.7661605 57.8793922,44.7661424 C57.8857319,44.7661242 57.8920694,44.7661152 57.8984047,44.7661152 L57.8715102,44.7661152 C49.881116,44.7338203 38.4342552,30.3324092 14.4125529,30.3647524 C-9.60908874,30.3970955 -16.2078541,44.733893 -29.0299995,44.7661152 L-29.0732989,44.7661152 C-29.0630887,44.7661152 -29.0528824,44.7661242 -29.0426801,44.7661424 C-29.0528824,44.7661605 -29.0630887,44.7661696 -29.0732989,44.7661696 L-29.0299995,44.7661696 C-16.2078541,44.7983918 -9.60908874,59.1351892 14.4125529,59.1675323 C38.4342552,59.1998755 49.881116,44.7984644 57.8715102,44.7661696 Z" id="Combined-Shape-Copy-2" fill="#000000" transform="translate(14.412553, 44.766142) rotate(-90.000000) translate(-14.412553, -44.766142) "></path>
                    <path d="M50.6921419,51.6530706 C42.7005354,51.6530706 31.2549566,37.219274 7.20629006,37.2516535 C-16.8423765,37.284033 -23.4289424,51.6530706 -36.2795617,51.6530706" id="Combined-Shape-Copy-3" fill="#4A4A4A" transform="translate(7.206290, 44.452335) rotate(-90.000000) translate(-7.206290, -44.452335) "></path>
                </g>
                <g id="Group-6-Copy" transform="translate(40.365215, 175.431962) rotate(-320.000000) translate(-40.365215, -175.431962) translate(25.865215, 130.931962)">
                    <path d="M57.8715102,44.7661696 L57.8984047,44.7661696 C57.8920694,44.7661696 57.8857319,44.7661605 57.8793922,44.7661424 C57.8857319,44.7661242 57.8920694,44.7661152 57.8984047,44.7661152 L57.8715102,44.7661152 C49.881116,44.7338203 38.4342552,30.3324092 14.4125529,30.3647524 C-9.60908874,30.3970955 -16.2078541,44.733893 -29.0299995,44.7661152 L-29.0732989,44.7661152 C-29.0630887,44.7661152 -29.0528824,44.7661242 -29.0426801,44.7661424 C-29.0528824,44.7661605 -29.0630887,44.7661696 -29.0732989,44.7661696 L-29.0299995,44.7661696 C-16.2078541,44.7983918 -9.60908874,59.1351892 14.4125529,59.1675323 C38.4342552,59.1998755 49.881116,44.7984644 57.8715102,44.7661696 Z" id="Combined-Shape-Copy-2" fill="#000000" transform="translate(14.412553, 44.766142) rotate(-90.000000) translate(-14.412553, -44.766142) "></path>
                    <path d="M50.6921419,51.6530706 C42.7005354,51.6530706 31.2549566,37.219274 7.20629006,37.2516535 C-16.8423765,37.284033 -23.4289424,51.6530706 -36.2795617,51.6530706 L50.6921419,51.6530706 Z" id="Combined-Shape-Copy-3" fill="#4A4A4A" transform="translate(7.206290, 44.452335) rotate(-90.000000) translate(-7.206290, -44.452335) "></path>
                </g>
                <g id="Group-6-Copy-2" transform="translate(106.023135, 184.667135) rotate(27.000000) translate(-106.023135, -184.667135) translate(91.523135, 140.167135)">
                    <path d="M57.8715102,44.7661696 L57.8984047,44.7661696 C57.8920694,44.7661696 57.8857319,44.7661605 57.8793922,44.7661424 C57.8857319,44.7661242 57.8920694,44.7661152 57.8984047,44.7661152 L57.8715102,44.7661152 C49.8811159,44.7338203 38.4342552,30.3324092 14.4125529,30.3647524 C-9.6090887,30.3970955 -16.2078541,44.7338929 -29.0299995,44.7661152 L-29.0732989,44.7661152 C-29.0630887,44.7661152 -29.0528824,44.7661242 -29.0426801,44.7661424 C-29.0528824,44.7661605 -29.0630887,44.7661696 -29.0732989,44.7661696 L-29.0299995,44.7661696 C-16.2078541,44.7983918 -9.60908874,59.1351892 14.4125529,59.1675323 C38.4342552,59.1998755 49.881116,44.7984644 57.8715102,44.7661696 Z" id="Combined-Shape-Copy-2" fill="#000000" transform="translate(14.412553, 44.766142) rotate(-90.000000) translate(-14.412553, -44.766142) "></path>
                    <path d="M50.6921419,51.6530706 C42.7005354,51.6530706 31.2549566,37.219274 7.20629006,37.2516535 C-16.8423765,37.284033 -23.4289424,51.6530706 -36.2795617,51.6530706" id="Combined-Shape-Copy-3" fill="#4A4A4A" transform="translate(7.206290, 44.452335) rotate(-90.000000) translate(-7.206290, -44.452335) "></path>
                </g>
                <g id="Group-11" transform="translate(87.991736, 0.000000)">
                    <ellipse id="Oval-7" stroke="#000000" stroke-width="11" fill="#454545" cx="58.0991736" cy="83.7866109" rx="58.0991736" ry="58.0543933"></ellipse>
                    <g id="Group-8" transform="translate(7.253308, 32.674417)" stroke-width="2" stroke="#D0011B">
                        <g id="Group-7" transform="translate(1.286203, 1.285982)">
                            <polygon id="Triangle-Copy" points="49.7121537 2.89643369 66.6693607 96.451242 32.7549468 96.451242"></polygon>
                            <polygon id="Triangle-Copy-2" transform="translate(49.712154, 49.673838) rotate(-345.000000) translate(-49.712154, -49.673838) " points="49.7121537 2.89643369 66.6693607 96.451242 32.7549468 96.451242"></polygon>
                            <polygon id="Triangle-Copy-3" transform="translate(49.712154, 49.673838) rotate(-330.000000) translate(-49.712154, -49.673838) " points="49.7121537 2.89643369 66.6693607 96.451242 32.7549468 96.451242"></polygon>
                            <polygon id="Triangle-Copy-4" transform="translate(49.712154, 49.673838) rotate(-315.000000) translate(-49.712154, -49.673838) " points="49.7121537 2.89643369 66.6693607 96.451242 32.7549468 96.451242"></polygon>
                            <polygon id="Triangle-Copy-5" transform="translate(49.712154, 49.673838) rotate(-300.000000) translate(-49.712154, -49.673838) " points="49.7121537 2.89643369 66.6693607 96.451242 32.7549468 96.451242"></polygon>
                            <polygon id="Triangle-Copy-6" transform="translate(49.712154, 49.673838) rotate(-285.000000) translate(-49.712154, -49.673838) " points="49.7121537 2.89643369 66.6693607 96.451242 32.7549468 96.451242"></polygon>
                            <polygon id="Triangle-Copy-7" transform="translate(49.712154, 49.673838) rotate(-270.000000) translate(-49.712154, -49.673838) " points="49.7121537 2.89643369 66.6693607 96.451242 32.7549468 96.451242"></polygon>
                        </g>
                        <g id="Group-7-Copy" transform="translate(50.672145, 51.247616) rotate(-270.000000) translate(-50.672145, -51.247616) translate(0.672145, 1.247616)">
                            <polygon id="Triangle-Copy" points="49.7121537 2.89643369 66.6693607 96.451242 32.7549468 96.451242"></polygon>
                            <polygon id="Triangle-Copy-2" transform="translate(49.712154, 49.673838) rotate(-345.000000) translate(-49.712154, -49.673838) " points="49.7121537 2.89643369 66.6693607 96.451242 32.7549468 96.451242"></polygon>
                            <polygon id="Triangle-Copy-3" transform="translate(49.712154, 49.673838) rotate(-330.000000) translate(-49.712154, -49.673838) " points="49.7121537 2.89643369 66.6693607 96.451242 32.7549468 96.451242"></polygon>
                            <polygon id="Triangle-Copy-4" transform="translate(49.712154, 49.673838) rotate(-315.000000) translate(-49.712154, -49.673838) " points="49.7121537 2.89643369 66.6693607 96.451242 32.7549468 96.451242"></polygon>
                            <polygon id="Triangle-Copy-5" transform="translate(49.712154, 49.673838) rotate(-300.000000) translate(-49.712154, -49.673838) " points="49.7121537 2.89643369 66.6693607 96.451242 32.7549468 96.451242"></polygon>
                            <polygon id="Triangle-Copy-6" transform="translate(49.712154, 49.673838) rotate(-285.000000) translate(-49.712154, -49.673838) " points="49.7121537 2.89643369 66.6693607 96.451242 32.7549468 96.451242"></polygon>
                            <polygon id="Triangle-Copy-7" transform="translate(49.712154, 49.673838) rotate(-270.000000) translate(-49.712154, -49.673838) " points="49.7121537 2.89643369 66.6693607 96.451242 32.7549468 96.451242"></polygon>
                        </g>
                        <g id="Group-7-Copy-2" transform="translate(50.710510, 50.633658) rotate(-180.000000) translate(-50.710510, -50.633658) translate(0.710510, 0.633658)">
                            <polygon id="Triangle-Copy" points="49.7121537 2.89643369 66.6693607 96.451242 32.7549468 96.451242"></polygon>
                            <polygon id="Triangle-Copy-2" transform="translate(49.712154, 49.673838) rotate(-345.000000) translate(-49.712154, -49.673838) " points="49.7121537 2.89643369 66.6693607 96.451242 32.7549468 96.451242"></polygon>
                            <polygon id="Triangle-Copy-3" transform="translate(49.712154, 49.673838) rotate(-330.000000) translate(-49.712154, -49.673838) " points="49.7121537 2.89643369 66.6693607 96.451242 32.7549468 96.451242"></polygon>
                            <polygon id="Triangle-Copy-4" transform="translate(49.712154, 49.673838) rotate(-315.000000) translate(-49.712154, -49.673838) " points="49.7121537 2.89643369 66.6693607 96.451242 32.7549468 96.451242"></polygon>
                            <polygon id="Triangle-Copy-5" transform="translate(49.712154, 49.673838) rotate(-300.000000) translate(-49.712154, -49.673838) " points="49.7121537 2.89643369 66.6693607 96.451242 32.7549468 96.451242"></polygon>
                            <polygon id="Triangle-Copy-6" transform="translate(49.712154, 49.673838) rotate(-285.000000) translate(-49.712154, -49.673838) " points="49.7121537 2.89643369 66.6693607 96.451242 32.7549468 96.451242"></polygon>
                            <polygon id="Triangle-Copy-7" transform="translate(49.712154, 49.673838) rotate(-270.000000) translate(-49.712154, -49.673838) " points="49.7121537 2.89643369 66.6693607 96.451242 32.7549468 96.451242"></polygon>
                        </g>
                        <g id="Group-7-Copy-3" transform="translate(51.324569, 50.672024) rotate(-90.000000) translate(-51.324569, -50.672024) translate(1.324569, 0.672024)">
                            <polygon id="Triangle-Copy" points="49.7121537 2.89643369 66.6693607 96.451242 32.7549468 96.451242"></polygon>
                            <polygon id="Triangle-Copy-2" transform="translate(49.712154, 49.673838) rotate(-345.000000) translate(-49.712154, -49.673838) " points="49.7121537 2.89643369 66.6693607 96.451242 32.7549468 96.451242"></polygon>
                            <polygon id="Triangle-Copy-3" transform="translate(49.712154, 49.673838) rotate(-330.000000) translate(-49.712154, -49.673838) " points="49.7121537 2.89643369 66.6693607 96.451242 32.7549468 96.451242"></polygon>
                            <polygon id="Triangle-Copy-4" transform="translate(49.712154, 49.673838) rotate(-315.000000) translate(-49.712154, -49.673838) " points="49.7121537 2.89643369 66.6693607 96.451242 32.7549468 96.451242"></polygon>
                            <polygon id="Triangle-Copy-5" transform="translate(49.712154, 49.673838) rotate(-300.000000) translate(-49.712154, -49.673838) " points="49.7121537 2.89643369 66.6693607 96.451242 32.7549468 96.451242"></polygon>
                            <polygon id="Triangle-Copy-6" transform="translate(49.712154, 49.673838) rotate(-285.000000) translate(-49.712154, -49.673838) " points="49.7121537 2.89643369 66.6693607 96.451242 32.7549468 96.451242"></polygon>
                            <polygon id="Triangle-Copy-7" transform="translate(49.712154, 49.673838) rotate(-270.000000) translate(-49.712154, -49.673838) " points="49.7121537 2.89643369 66.6693607 96.451242 32.7549468 96.451242"></polygon>
                        </g>
                    </g>
                    <ellipse id="Oval-9" fill="#FFFFFF" cx="58.3299712" cy="83.3896155" rx="13.8751105" ry="13.8644162"></ellipse>
                    <path d="M137.156699,91.1962771 C137.156699,58.9604099 111.004208,32.8280762 78.7434758,32.8280762 C46.4827434,32.8280762 20.3302526,58.9604099 20.3302526,91.1962771" id="Oval-9-Copy" fill="#000000" style="mix-blend-mode: overlay;" transform="translate(78.743476, 62.012177) rotate(-315.000000) translate(-78.743476, -62.012177) "></path>
                </g>
            </g>
        </g>
    </g>
</svg>