<?xml version="1.0" encoding="UTF-8"?>
<svg width="180px" height="134px" viewBox="0 0 180 134" version="1.1" xmlns="http://www.w3.org/2000/svg" xmlns:xlink="http://www.w3.org/1999/xlink">
    <!-- Generator: Sketch 43.2 (39069) - http://www.bohemiancoding.com/sketch -->
    <title>Group Copy</title>
    <desc>Created with Sketch.</desc>
    <defs></defs>
    <g id="Card-Back" stroke="none" stroke-width="1" fill="none" fill-rule="evenodd">
        <g id="Group-Copy">
            <g id="Group-2">
                <circle id="Oval" fill="#BE5965" cx="60" cy="60" r="60"></circle>
                <polygon id="Triangle-2" fill="#FFFFFF" points="51.747116 50.2262443 55.7114265 55.4079416 51.747116 52.4737275 47.7828054 55.4079416"></polygon>
                <polygon id="Triangle-2-Copy-8" fill="#FFFFFF" points="10.2086544 56.199095 14.172965 61.3807923 10.2086544 58.4465782 6.24434389 61.3807923"></polygon>
                <polygon id="Triangle-2-Copy-6" fill="#FFFFFF" points="21.3398762 63.5294118 25.3041867 68.711109 21.3398762 65.7768949 17.3755656 68.711109"></polygon>
                <polygon id="Triangle-2-Copy" fill="#FFFFFF" points="62.6068445 64.6387108 58.6425339 59.4570136 62.6068445 62.3912277 66.571155 59.4570136"></polygon>
                <polygon id="Triangle-2-Copy-7" fill="#FFFFFF" points="38.4439486 52.150023 34.479638 46.9683258 38.4439486 49.9025399 42.4082591 46.9683258"></polygon>
                <polyline id="Triangle-2-Copy-2" fill="#FFFFFF" points="77.6522951 51.1192978 81.1502161 55.6913837 77.6522951 53.1023712 74.154374 55.6913837"></polyline>
                <polyline id="Triangle-2-Copy-3" fill="#FFFFFF" points="108.417475 39.8390861 106.768586 37.6838457 108.417475 38.9042831 110.066364 37.6838457"></polyline>
                <polyline id="Triangle-2-Copy-4" fill="#FFFFFF" points="97.0163636 47.3926041 95.6190313 45.5661699 97.0163636 46.6004158 98.4136958 45.5661699"></polyline>
                <polyline id="Triangle-2-Copy-5" fill="#FFFFFF" points="86.7762687 42.5847377 89.3395747 45.9352006 86.7762687 44.0379505 84.2129628 45.9352006"></polyline>
            </g>
            <path d="M165.188294,115.70232 L180,115.70232 L167.241537,99.4560508 L176.92928,99.4560508 L165.275953,84.6538943 L172.955408,84.6538943 L157.60181,65.158371 L142.248212,84.6538943 L149.927667,84.6538943 L138.27434,99.4560508 L147.962083,99.4560508 L135.20362,115.70232 L150.015326,115.70232 L150.015326,133.031674 L165.188294,133.031674 L165.188294,115.70232 Z" id="Combined-Shape-Copy" fill="#000000"></path>
            <path d="M124.696395,86.9067103 L134.660633,86.9067103 L126.077668,75.9892173 L132.594877,75.9892173 L124.755365,66.0421681 L129.921544,66.0421681 L119.59276,52.9411765 L109.263976,66.0421681 L114.430155,66.0421681 L106.590644,75.9892173 L113.107853,75.9892173 L104.524887,86.9067103 L114.489126,86.9067103 L114.489126,98.5520362 L124.696395,98.5520362 L124.696395,86.9067103 Z" id="Combined-Shape-Copy-2" fill="#000000"></path>
            <path d="M25.2488688,120.271493 L36.3800905,120.271493 L26.7919125,108.054299 L34.0723982,108.054299 L25.3147458,96.9230769 L31.0859729,96.9230769 L19.5475113,82.2624434 L8.00904977,96.9230769 L13.7802768,96.9230769 L5.02262443,108.054299 L12.3031101,108.054299 L2.71493213,120.271493 L13.8461538,120.271493 L13.8461538,133.303167 L25.2488688,133.303167 L25.2488688,120.271493 Z" id="Combined-Shape" fill="#000000"></path>
            <path d="M53.2936798,93.4225474 L63.2579186,93.4225474 L54.6749527,82.5050544 L61.1921617,82.5050544 L53.3526503,72.5580052 L58.5188294,72.5580052 L48.1900452,59.4570136 L37.8612611,72.5580052 L43.0274402,72.5580052 L35.1879288,82.5050544 L41.7051378,82.5050544 L33.1221719,93.4225474 L43.0864107,93.4225474 L43.0864107,105.067873 L53.2936798,105.067873 L53.2936798,93.4225474 Z" id="Combined-Shape-Copy-3" fill="#000000"></path>
            <rect id="Rectangle-3-Copy-13" fill="#F2F2F2" transform="translate(137.579186, 116.199095) rotate(-270.000000) translate(-137.579186, -116.199095) " x="120.475113" y="96.1764706" width="34.2081448" height="40.0452489"></rect>
            <rect id="Rectangle-3-Copy-7" fill="#F2F2F2" x="40.7239819" y="93.3936652" width="78.1900452" height="39.9095023"></rect>
            <polygon id="Triangle" fill="#4A4A4A" points="31.9004525 18.7330317 45.0678733 76.8325792 18.7330317 76.8325792"></polygon>
            <polygon id="Triangle-Copy-9" fill="#000000" points="32.0361991 18.7330317 45.2036199 76.8325792 32.0361991 76.8325792"></polygon>
            <rect id="Rectangle-2" fill="#F2F2F2" x="23.0769231" y="76.8325792" width="17.6470588" height="39.9095023"></rect>
            <rect id="Rectangle-2-Copy" fill="#D8D8D8" x="23.0769231" y="76.8325792" width="9.23076923" height="39.9095023"></rect>
            <rect id="Rectangle-3" fill="#4A4A4A" x="13.8461538" y="106.153846" width="9.23076923" height="10.5882353"></rect>
            <rect id="Rectangle-3-Copy" fill="#D8D8D8" x="13.8461538" y="116.742081" width="9.23076923" height="10.5882353"></rect>
            <rect id="Rectangle-3-Copy-3" fill="#9B9B9B" x="23.0769231" y="116.742081" width="17.6470588" height="16.561086"></rect>
            <rect id="Rectangle-3-Copy-10" fill="#9B9B9B" x="126.244344" y="112.669683" width="17.6470588" height="20.6334842"></rect>
            <rect id="Rectangle-3-Copy-2" fill="#4A4A4A" x="13.8461538" y="127.330317" width="9.23076923" height="5.97285068"></rect>
            <polygon id="Triangle-Copy" fill="#4A4A4A" points="40.9954751 94.7511312 58.9140271 116.742081 23.0769231 116.742081"></polygon>
            <rect id="Rectangle-3-Copy-5" fill="#9B9B9B" transform="translate(69.434389, 86.063348) rotate(-270.000000) translate(-69.434389, -86.063348) " x="62.1040724" y="66.040724" width="14.6606335" height="40.0452489"></rect>
            <polyline id="Rectangle-3-Copy-14" fill="#000000" points="65.8465748 104.395454 65.8465748 112.39819 62.4434389 112.39819 62.4434389 104.395454 64.1450068 101.809955"></polyline>
            <polyline id="Rectangle-3-Copy-18" fill="#000000" points="30.5524571 82.4045038 30.5524571 90.4072398 27.1493213 90.4072398 27.1493213 82.4045038 28.8508892 79.8190045"></polyline>
            <polyline id="Rectangle-3-Copy-15" fill="#000000" points="72.0909187 104.395454 72.0909187 112.39819 68.6877828 112.39819 68.6877828 104.395454 70.3893507 101.809955"></polyline>
            <polyline id="Rectangle-3-Copy-19" fill="#000000" points="36.796801 82.4045038 36.796801 90.4072398 33.3936652 90.4072398 33.3936652 82.4045038 35.0952331 79.8190045"></polyline>
            <polyline id="Rectangle-3-Copy-16" fill="#000000" points="84.5796064 104.395454 84.5796064 112.39819 81.1764706 112.39819 81.1764706 104.395454 82.8780385 101.809955"></polyline>
            <polyline id="Rectangle-3-Copy-17" fill="#000000" points="78.3352625 104.395454 78.3352625 112.39819 74.9321267 112.39819 74.9321267 104.395454 76.6336946 101.809955"></polyline>
            <rect id="Rectangle-3-Copy-12" fill="#D8D8D8" transform="translate(137.579186, 91.764706) rotate(-270.000000) translate(-137.579186, -91.764706) " x="130.248869" y="71.7420814" width="14.6606335" height="40.0452489"></rect>
            <polygon id="Rectangle-3-Copy-11" fill="#4A4A4A" transform="translate(118.201357, 91.357466) rotate(-270.000000) translate(-118.201357, -91.357466) " points="111.142534 66.2443439 125.260181 76.4253394 125.260181 116.470588 111.142534 106.289593"></polygon>
            <polygon id="Triangle-Copy-2" fill="#000000" points="49.5475113 78.7330317 61.0859729 93.3936652 38.0090498 93.3936652"></polygon>
            <polygon id="Triangle-Copy-3" fill="#4A4A4A" points="103.438914 61.3574661 128.687783 93.3936652 78.1900452 93.3936652"></polygon>
            <polygon id="Triangle-Copy-10" fill="#000000" points="103.438914 61.3574661 128.687783 93.3936652 103.438914 93.3936652"></polygon>
            <polygon id="Triangle-Copy-4" fill="#9B9B9B" points="103.312371 73.5746606 118.932433 93.3936652 87.6923077 93.3936652"></polygon>
            <polygon id="Triangle-Copy-5" fill="#9B9B9B" points="128.289746 92.8506787 143.909809 112.669683 112.669683 112.669683"></polygon>
            <rect id="Rectangle-3-Copy-4" fill="#D8D8D8" x="40.7239819" y="93.3936652" width="17.6470588" height="39.9095023"></rect>
            <rect id="Rectangle-3-Copy-6" fill="#D8D8D8" x="87.6923077" y="93.3936652" width="31.2217195" height="39.9095023"></rect>
            <polyline id="Rectangle-3-Copy-20" fill="#FFFFFF" points="112.180562 106.848364 112.180562 122.443439 105.968809 122.443439 105.968809 106.848364 109.074685 101.809955"></polyline>
            <polyline id="Rectangle-3-Copy-21" fill="#FFFFFF" points="100.782744 106.848364 100.782744 122.443439 94.57099 122.443439 94.57099 106.848364 97.6768668 101.809955"></polyline>
            <rect id="Rectangle-3-Copy-8" fill="#4A4A4A" x="118.914027" y="93.3936652" width="9.23076923" height="39.9095023"></rect>
            <rect id="Rectangle-3-Copy-9" fill="#4A4A4A" x="128.144796" y="111.312217" width="9.23076923" height="21.9909502"></rect>
            <path d="M144.946723,124.707808 L152.307692,124.707808 L145.967123,116.649658 L150.781638,116.649658 L144.990287,109.307789 L148.806744,109.307789 L141.176471,99.638009 L133.546198,109.307789 L137.362654,109.307789 L131.571303,116.649658 L136.385818,116.649658 L130.045249,124.707808 L137.406218,124.707808 L137.406218,133.303167 L144.946723,133.303167 L144.946723,124.707808 Z" id="Combined-Shape-Copy-6" fill="#000000"></path>
            <path d="M114.298643,133.303167 C114.298643,118.608894 102.386581,106.696833 87.6923077,106.696833 C72.9980347,106.696833 61.0859729,118.608894 61.0859729,133.303167 C74.096119,133.303167 92.6150657,133.303167 114.298643,133.303167 Z" id="Oval-2" fill="#000000" style="mix-blend-mode: overlay;"></path>
        </g>
    </g>
</svg>