<?xml version="1.0" encoding="UTF-8"?>
<svg width="552px" height="320px" viewBox="0 0 552 320" version="1.1" xmlns="http://www.w3.org/2000/svg" xmlns:xlink="http://www.w3.org/1999/xlink">
    <!-- Generator: Sketch 43.2 (39069) - http://www.bohemiancoding.com/sketch -->
    <title>Artboard Copy</title>
    <desc>Created with Sketch.</desc>
    <defs></defs>
    <g id="Page-1" stroke="none" stroke-width="1" fill="none" fill-rule="evenodd">
        <g id="Artboard-Copy">
            <g id="Group-6" transform="translate(105.000000, 114.000000)">
                <g id="Group-3" transform="translate(170.816909, 46.497465) rotate(-315.000000) translate(-170.816909, -46.497465) translate(138.316909, 13.497465)">
                    <rect id="Rectangle" fill="#9B9B9B" x="3.05533376e-13" y="-7.10542736e-15" width="64.7568835" height="65.2669265"></rect>
                    <polygon id="Rectangle-Copy-4" fill="#000000" points="64.7568835 7.10542736e-14 64.7568835 65.2669265 2.13162821e-13 65.2669265"></polygon>
                </g>
                <g id="Group-3-Copy-2" opacity="0.264322917" transform="translate(294.726676, 46.497465) rotate(-315.000000) translate(-294.726676, -46.497465) translate(262.226676, 13.497465)">
                    <rect id="Rectangle" fill="#9B9B9B" x="2.84217094e-13" y="7.81597009e-14" width="64.7568835" height="65.2669265"></rect>
                    <polygon id="Rectangle-Copy-4" fill="#000000" points="64.7568835 -7.10542736e-15 64.7568835 65.2669265 1.98951966e-13 65.2669265"></polygon>
                </g>
                <g id="Group-3-Copy-3" transform="translate(46.907142, 46.497465) rotate(-315.000000) translate(-46.907142, -46.497465) translate(14.407142, 13.497465)">
                    <rect id="Rectangle" fill="#9B9B9B" x="2.59348099e-13" y="9.23705556e-14" width="64.7568835" height="65.2669265"></rect>
                    <polygon id="Rectangle-Copy-4" fill="#000000" points="64.7568835 0 64.7568835 65.2669265 1.7408297e-13 65.2669265"></polygon>
                </g>
            </g>
        </g>
    </g>
</svg>